<svg width="1143" height="653" viewBox="0 0 1143 653" fill="none" xmlns="http://www.w3.org/2000/svg">
<g clip-path="url(#clip0)">
<g opacity="0.1">
<path opacity="0.1" d="M840.37 642.94C852.57 642.94 862.46 629.997 862.46 614.03C862.46 598.063 852.57 585.12 840.37 585.12C828.17 585.12 818.28 598.063 818.28 614.03C818.28 629.997 828.17 642.94 840.37 642.94Z" fill="#3F3D56"/>
<path opacity="0.1" d="M857.85 490.35C860.945 484.979 862.55 478.879 862.5 472.68C862.5 456.68 852.61 443.77 840.41 443.77C828.21 443.77 818.33 456.71 818.33 472.68C818.268 478.875 819.859 484.975 822.94 490.35C819.917 495.747 818.33 501.829 818.33 508.015C818.33 514.201 819.917 520.283 822.94 525.68C819.917 531.079 818.33 537.163 818.33 543.35C818.33 549.537 819.917 555.621 822.94 561.02C819.859 566.395 818.268 572.495 818.33 578.69C818.33 594.69 828.22 607.6 840.41 607.6C852.6 607.6 862.5 594.66 862.5 578.69C862.562 572.495 860.971 566.395 857.89 561.02C860.913 555.621 862.5 549.537 862.5 543.35C862.5 537.163 860.913 531.079 857.89 525.68C860.913 520.283 862.5 514.201 862.5 508.015C862.5 501.829 860.913 495.747 857.89 490.35H857.85Z" fill="#3F3D56"/>
<path opacity="0.1" d="M840.37 466.26C852.57 466.26 862.46 453.317 862.46 437.35C862.46 421.383 852.57 408.44 840.37 408.44C828.17 408.44 818.28 421.383 818.28 437.35C818.28 453.317 828.17 466.26 840.37 466.26Z" fill="#3F3D56"/>
<path opacity="0.1" d="M840.37 430.92C852.57 430.92 862.46 417.977 862.46 402.01C862.46 386.043 852.57 373.1 840.37 373.1C828.17 373.1 818.28 386.043 818.28 402.01C818.28 417.977 828.17 430.92 840.37 430.92Z" fill="#3F3D56"/>
<path opacity="0.1" d="M923.05 160.19C926.065 156.347 928.811 152.3 931.27 148.08L873.27 138.55L936.04 139.02C942.056 125.919 945.336 111.728 945.68 97.3162C946.024 82.904 943.424 68.5731 938.04 55.2L853.82 98.86L931.5 41.8C924.22 29.2369 914.433 18.3067 902.746 9.68972C891.06 1.07274 877.725 -5.04654 863.571 -8.28723C849.418 -11.5279 834.749 -11.8206 820.477 -9.14714C806.206 -6.47366 792.637 -0.891213 780.616 7.2527C768.596 15.3966 758.38 25.9277 750.605 38.1904C742.83 50.453 737.662 64.1848 735.423 78.531C733.184 92.8772 733.922 107.531 737.592 121.579C741.261 135.628 747.782 148.771 756.75 160.19C752.05 166.169 748.006 172.636 744.69 179.48L820.02 218.62L739.7 191.62C734.048 208.286 732.643 226.098 735.612 243.444C738.58 260.79 745.828 277.122 756.7 290.96C744.426 306.564 736.791 325.308 734.667 345.047C732.543 364.786 736.017 384.725 744.691 402.583C753.365 420.441 766.889 435.498 783.717 446.033C800.544 456.567 819.997 462.153 839.85 462.153C859.703 462.153 879.156 456.567 895.984 446.033C912.812 435.498 926.335 420.441 935.009 402.583C943.683 384.725 947.157 364.786 945.033 345.047C942.909 325.308 935.274 306.564 923 290.96C937.667 272.314 945.641 249.279 945.641 225.555C945.641 201.831 937.667 178.796 923 160.15L923.05 160.19Z" fill="#89A525"/>
<path opacity="0.1" d="M734.11 225.6C734.073 249.328 742.051 272.373 756.75 291C744.476 306.604 736.841 325.348 734.717 345.087C732.593 364.826 736.067 384.765 744.741 402.623C753.415 420.481 766.939 435.538 783.766 446.072C800.594 456.607 820.047 462.193 839.9 462.193C859.753 462.193 879.206 456.607 896.034 446.072C912.861 435.538 926.385 420.481 935.059 402.623C943.733 384.765 947.207 364.826 945.083 345.087C942.959 325.348 935.324 306.604 923.05 291C937.23 273 734.11 213.72 734.11 225.6Z" fill="black"/>
</g>
<g opacity="0.1">
<path opacity="0.1" d="M220.81 612.02C228.233 612.02 234.25 604.14 234.25 594.42C234.25 584.7 228.233 576.82 220.81 576.82C213.387 576.82 207.37 584.7 207.37 594.42C207.37 604.14 213.387 612.02 220.81 612.02Z" fill="#3F3D56"/>
<path opacity="0.1" d="M231.5 519.13C233.376 515.857 234.346 512.143 234.31 508.37C234.31 498.65 228.31 490.77 220.86 490.77C213.41 490.77 207.42 498.65 207.42 508.37C207.381 512.142 208.347 515.856 210.22 519.13C208.384 522.417 207.421 526.12 207.421 529.885C207.421 533.65 208.384 537.353 210.22 540.64C208.384 543.927 207.421 547.63 207.421 551.395C207.421 555.16 208.384 558.863 210.22 562.15C208.346 565.42 207.379 569.131 207.42 572.9C207.42 582.63 213.42 590.51 220.86 590.51C228.3 590.51 234.31 582.63 234.31 572.9C234.348 569.13 233.377 565.419 231.5 562.15C233.341 558.864 234.308 555.161 234.308 551.395C234.308 547.629 233.341 543.926 231.5 540.64C233.341 537.354 234.308 533.651 234.308 529.885C234.308 526.119 233.341 522.416 231.5 519.13V519.13Z" fill="#3F3D56"/>
<path opacity="0.1" d="M220.81 504.46C228.233 504.46 234.25 496.58 234.25 486.86C234.25 477.14 228.233 469.26 220.81 469.26C213.387 469.26 207.37 477.14 207.37 486.86C207.37 496.58 213.387 504.46 220.81 504.46Z" fill="#3F3D56"/>
<path opacity="0.1" d="M220.81 482.95C228.233 482.95 234.25 475.07 234.25 465.35C234.25 455.63 228.233 447.75 220.81 447.75C213.387 447.75 207.37 455.63 207.37 465.35C207.37 475.07 213.387 482.95 220.81 482.95Z" fill="#3F3D56"/>
<path opacity="0.1" d="M170.5 318.13C168.664 315.792 166.994 313.33 165.5 310.76L200.83 304.96L162.62 305.25C158.962 297.278 156.966 288.645 156.755 279.877C156.543 271.108 158.12 262.389 161.39 254.25L212.62 280.86L165.35 246.06C169.784 238.417 175.743 231.768 182.856 226.527C189.969 221.286 198.085 217.565 206.699 215.595C215.312 213.626 224.239 213.449 232.923 215.078C241.607 216.706 249.864 220.104 257.179 225.06C264.494 230.016 270.71 236.424 275.442 243.886C280.174 251.348 283.32 259.704 284.684 268.433C286.048 277.163 285.601 286.08 283.37 294.63C281.14 303.18 277.174 311.179 271.72 318.13C274.581 321.765 277.042 325.697 279.06 329.86L233.2 353.7L282.1 337.29C285.534 347.439 286.384 358.285 284.571 368.845C282.759 379.405 278.342 389.347 271.72 397.77C279.191 407.269 283.839 418.679 285.131 430.695C286.423 442.712 284.308 454.849 279.028 465.72C273.747 476.59 265.515 485.756 255.271 492.169C245.027 498.581 233.185 501.982 221.1 501.982C209.015 501.982 197.173 498.581 186.929 492.169C176.685 485.756 168.453 476.59 163.172 465.72C157.892 454.849 155.777 442.712 157.069 430.695C158.362 418.679 163.009 407.269 170.48 397.77C161.552 386.417 156.699 372.393 156.699 357.95C156.699 343.507 161.552 329.483 170.48 318.13H170.5Z" fill="#89A525"/>
<path opacity="0.1" d="M285.5 357.95C285.521 372.396 280.666 386.427 271.72 397.77C279.191 407.269 283.838 418.679 285.131 430.695C286.423 442.712 284.308 454.849 279.028 465.72C273.747 476.59 265.515 485.756 255.271 492.169C245.027 498.581 233.185 501.982 221.1 501.982C209.015 501.982 197.173 498.581 186.929 492.169C176.685 485.756 168.453 476.59 163.172 465.72C157.892 454.849 155.777 442.712 157.069 430.695C158.361 418.679 163.009 407.269 170.48 397.77C161.85 386.86 285.5 350.72 285.5 357.95Z" fill="black"/>
</g>
<g opacity="0.1">
<path opacity="0.1" d="M523.81 627.34C533.746 627.34 541.8 616.796 541.8 603.79C541.8 590.784 533.746 580.24 523.81 580.24C513.874 580.24 505.82 590.784 505.82 603.79C505.82 616.796 513.874 627.34 523.81 627.34Z" fill="#3F3D56"/>
<path opacity="0.1" d="M538.05 503.03C540.557 498.648 541.852 493.678 541.8 488.63C541.8 475.63 533.8 465.08 523.8 465.08C513.8 465.08 505.8 475.63 505.8 488.63C505.747 493.679 507.045 498.651 509.56 503.03C507.095 507.427 505.801 512.384 505.801 517.425C505.801 522.466 507.095 527.423 509.56 531.82C507.095 536.216 505.801 541.17 505.801 546.21C505.801 551.249 507.095 556.204 509.56 560.6C507.045 564.979 505.747 569.951 505.8 575C505.8 588 513.86 598.55 523.8 598.55C533.74 598.55 541.8 588 541.8 575C541.852 569.952 540.557 564.982 538.05 560.6C540.51 556.203 541.801 551.248 541.801 546.21C541.801 541.172 540.51 536.217 538.05 531.82C540.509 527.421 541.801 522.465 541.801 517.425C541.801 512.385 540.509 507.429 538.05 503.03V503.03Z" fill="#3F3D56"/>
<path opacity="0.1" d="M523.81 483.4C533.746 483.4 541.8 472.856 541.8 459.85C541.8 446.844 533.746 436.3 523.81 436.3C513.874 436.3 505.82 446.844 505.82 459.85C505.82 472.856 513.874 483.4 523.81 483.4Z" fill="#3F3D56"/>
<path opacity="0.1" d="M523.81 454.61C533.746 454.61 541.8 444.066 541.8 431.06C541.8 418.054 533.746 407.51 523.81 407.51C513.874 407.51 505.82 418.054 505.82 431.06C505.82 444.066 513.874 454.61 523.81 454.61Z" fill="#3F3D56"/>
<path opacity="0.1" d="M456.5 234.06C454.041 230.932 451.802 227.638 449.8 224.2L497.07 216.44L445.95 216.82C441.045 206.148 438.369 194.587 438.085 182.845C437.801 171.103 439.916 159.427 444.3 148.53L512.9 184.11L449.63 137.61C455.541 127.338 463.507 118.395 473.031 111.34C482.554 104.285 493.43 99.2705 504.979 96.609C516.528 93.9475 528.502 93.6964 540.152 95.8714C551.803 98.0464 562.879 102.601 572.69 109.25C582.501 115.899 590.835 124.5 597.172 134.516C603.508 144.532 607.711 155.746 609.518 167.46C611.324 179.173 610.696 191.133 607.671 202.592C604.647 214.051 599.292 224.764 591.94 234.06C595.768 238.932 599.06 244.203 601.76 249.78L540.4 281.66L605.83 259.66C610.426 273.241 611.563 287.754 609.138 301.885C606.713 316.016 600.802 329.319 591.94 340.59C601.938 353.302 608.157 368.571 609.886 384.651C611.615 400.731 608.785 416.973 601.719 431.52C594.652 446.067 583.635 458.332 569.927 466.914C556.219 475.495 540.373 480.046 524.2 480.046C508.027 480.046 492.181 475.495 478.473 466.914C464.765 458.332 453.748 446.067 446.681 431.52C439.615 416.973 436.785 400.731 438.514 384.651C440.243 368.571 446.462 353.302 456.46 340.59C444.515 325.397 438.021 306.631 438.021 287.305C438.021 267.979 444.515 249.213 456.46 234.02L456.5 234.06Z" fill="#89A525"/>
<path opacity="0.1" d="M610.38 287.35C610.41 306.68 603.912 325.454 591.94 340.63C601.938 353.342 608.157 368.611 609.886 384.691C611.615 400.771 608.785 417.013 601.719 431.56C594.652 446.107 583.635 458.372 569.927 466.954C556.219 475.535 540.373 480.086 524.2 480.086C508.027 480.086 492.181 475.535 478.473 466.954C464.765 458.372 453.748 446.107 446.681 431.56C439.615 417.013 436.785 400.771 438.514 384.691C440.243 368.611 446.462 353.342 456.46 340.63C444.91 325.97 610.38 277.67 610.38 287.35Z" fill="black"/>
</g>
<path d="M1143 625.22C1143 632.09 1092.78 638.37 1009.75 643.22C994.65 644.09 978.47 644.92 961.31 645.7C946.483 646.367 930.943 646.997 914.69 647.59C898.943 648.15 882.593 648.67 865.64 649.15C812.1 650.68 752.91 651.78 690.03 652.33C674.77 652.47 659.307 652.577 643.64 652.65C627.32 652.723 610.813 652.757 594.12 652.75C290.98 652.75 45.25 640.44 45.25 625.25C45.25 610.06 290.98 597.75 594.12 597.75C724.63 597.75 844.48 600.04 938.68 603.84L948.98 604.26H949.04C1067.7 609.29 1143 616.86 1143 625.22Z" fill="#3F3D56"/>
<path opacity="0.15" d="M1143 625.22C1143 632.09 1092.78 638.37 1009.75 643.22C994.65 644.09 978.47 644.92 961.31 645.7C946.483 646.367 930.943 646.997 914.69 647.59C898.943 648.15 882.593 648.67 865.64 649.15C812.1 650.68 752.91 651.78 690.03 652.33C674.77 652.47 659.307 652.577 643.64 652.65C627.32 652.723 610.813 652.757 594.12 652.75C290.98 652.75 45.25 640.44 45.25 625.25C45.25 610.06 290.98 597.75 594.12 597.75C724.63 597.75 844.48 600.04 938.68 603.84L948.98 604.26H949.04C1067.7 609.29 1143 616.86 1143 625.22Z" fill="black"/>
<path d="M1097.75 620.38C1097.75 626.12 1047.53 631.38 964.5 635.38C949.41 636.11 933.22 636.8 916.07 637.45C901.237 638.01 885.697 638.537 869.45 639.03C853.703 639.497 837.353 639.933 820.4 640.34C766.85 641.62 707.66 642.54 644.78 643C629.533 643.113 614.07 643.2 598.39 643.26C582.07 643.32 565.567 643.35 548.88 643.35C245.74 643.35 0 633.06 0 620.35C0 607.64 245.74 597.35 548.88 597.35C679.38 597.35 799.23 599.26 893.43 602.44L903.73 602.79H903.8C1022.5 607.06 1097.75 613.35 1097.75 620.38Z" fill="#294442"/>
<path d="M141.76 411.45L127.98 369.26L457.98 365.65L471.5 407.42L141.76 411.45Z" fill="#3F3D56"/>
<path opacity="0.15" d="M141.76 411.45L127.98 369.26L457.98 365.65L471.5 407.42L141.76 411.45Z" fill="black"/>
<path d="M119.76 411.45L105.98 369.26L435.98 365.65L449.5 407.42L119.76 411.45Z" fill="#294442"/>
<path d="M683.11 346.62C648.99 346.62 622.1 333.077 602.44 305.99C582.78 278.903 572.95 246.09 572.95 207.55C572.95 168.75 582.457 136.003 601.47 109.31C620.483 82.6166 647.303 69.2833 681.93 69.31C718.65 69.31 746.317 83.3733 764.93 111.5C783.543 139.627 792.853 172.18 792.86 209.16C792.86 245.873 783.227 277.967 763.96 305.44C744.693 332.913 717.743 346.64 683.11 346.62ZM684.11 316.15C706.557 316.15 723.333 306.367 734.44 286.8C745.547 267.233 751.1 242.567 751.1 212.8C751.1 179.667 745.417 152.537 734.05 131.41C722.683 110.283 705.25 99.7167 681.75 99.71C637.083 99.71 614.75 135.19 614.75 206.15C614.75 279.49 637.863 316.157 684.09 316.15H684.11ZM695.35 607.94H646L969.08 74.74H1017.5L695.35 607.94ZM981.17 613.41C946.537 613.41 919.537 599.743 900.17 572.41C880.803 545.077 871.08 512.26 871 473.96C871 435.42 880.44 402.803 899.32 376.11C918.2 349.417 945.087 336.083 979.98 336.11C1016.44 336.11 1043.91 350.173 1062.4 378.3C1080.89 406.427 1090.13 438.977 1090.14 475.95C1090.14 512.423 1080.57 544.457 1061.43 572.05C1042.29 599.643 1015.53 613.43 981.15 613.41H981.17ZM981.75 582.16C1004.09 582.16 1020.78 572.543 1031.81 553.31C1042.84 534.077 1048.36 509.51 1048.36 479.61C1048.36 447.61 1042.78 420.773 1031.61 399.1C1020.44 377.427 1003.05 366.573 979.42 366.54C934.493 366.54 912.03 402.02 912.03 472.98C912.017 545.773 935.25 582.167 981.73 582.16H981.75Z" fill="#3F3D56"/>
<path d="M683.11 346.62C648.99 346.62 622.1 333.077 602.44 305.99C582.78 278.903 572.95 246.09 572.95 207.55C572.95 168.75 582.457 136.003 601.47 109.31C620.483 82.6166 647.303 69.2833 681.93 69.31C718.65 69.31 746.317 83.3733 764.93 111.5C783.543 139.627 792.853 172.18 792.86 209.16C792.86 245.873 783.227 277.967 763.96 305.44C744.693 332.913 717.743 346.64 683.11 346.62ZM684.11 316.15C706.557 316.15 723.333 306.367 734.44 286.8C745.547 267.233 751.1 242.567 751.1 212.8C751.1 179.667 745.417 152.537 734.05 131.41C722.683 110.283 705.25 99.7167 681.75 99.71C637.083 99.71 614.75 135.19 614.75 206.15C614.75 279.49 637.863 316.157 684.09 316.15H684.11ZM695.35 607.94H646L969.08 74.74H1017.5L695.35 607.94ZM981.17 613.41C946.537 613.41 919.537 599.743 900.17 572.41C880.803 545.077 871.08 512.26 871 473.96C871 435.42 880.44 402.803 899.32 376.11C918.2 349.417 945.087 336.083 979.98 336.11C1016.44 336.11 1043.91 350.173 1062.4 378.3C1080.89 406.427 1090.13 438.977 1090.14 475.95C1090.14 512.423 1080.57 544.457 1061.43 572.05C1042.29 599.643 1015.53 613.43 981.15 613.41H981.17ZM981.75 582.16C1004.09 582.16 1020.78 572.543 1031.81 553.31C1042.84 534.077 1048.36 509.51 1048.36 479.61C1048.36 447.61 1042.78 420.773 1031.61 399.1C1020.44 377.427 1003.05 366.573 979.42 366.54C934.493 366.54 912.03 402.02 912.03 472.98C912.017 545.773 935.25 582.167 981.73 582.16H981.75Z" fill="#3F3D56"/>
<path opacity="0.15" d="M683.11 346.62C648.99 346.62 622.1 333.077 602.44 305.99C582.78 278.903 572.95 246.09 572.95 207.55C572.95 168.75 582.457 136.003 601.47 109.31C620.483 82.6166 647.303 69.2833 681.93 69.31C718.65 69.31 746.317 83.3733 764.93 111.5C783.543 139.627 792.853 172.18 792.86 209.16C792.86 245.873 783.227 277.967 763.96 305.44C744.693 332.913 717.743 346.64 683.11 346.62ZM684.11 316.15C706.557 316.15 723.333 306.367 734.44 286.8C745.547 267.233 751.1 242.567 751.1 212.8C751.1 179.667 745.417 152.537 734.05 131.41C722.683 110.283 705.25 99.7167 681.75 99.71C637.083 99.71 614.75 135.19 614.75 206.15C614.75 279.49 637.863 316.157 684.09 316.15H684.11ZM695.35 607.94H646L969.08 74.74H1017.5L695.35 607.94ZM981.17 613.41C946.537 613.41 919.537 599.743 900.17 572.41C880.803 545.077 871.08 512.26 871 473.96C871 435.42 880.44 402.803 899.32 376.11C918.2 349.417 945.087 336.083 979.98 336.11C1016.44 336.11 1043.91 350.173 1062.4 378.3C1080.89 406.427 1090.13 438.977 1090.14 475.95C1090.14 512.423 1080.57 544.457 1061.43 572.05C1042.29 599.643 1015.53 613.43 981.15 613.41H981.17ZM981.75 582.16C1004.09 582.16 1020.78 572.543 1031.81 553.31C1042.84 534.077 1048.36 509.51 1048.36 479.61C1048.36 447.61 1042.78 420.773 1031.61 399.1C1020.44 377.427 1003.05 366.573 979.42 366.54C934.493 366.54 912.03 402.02 912.03 472.98C912.017 545.773 935.25 582.167 981.73 582.16H981.75Z" fill="black"/>
<path d="M652.11 346.62C617.99 346.62 591.1 333.077 571.44 305.99C551.78 278.903 541.95 246.09 541.95 207.55C541.95 168.75 551.457 136.003 570.47 109.31C589.483 82.6166 616.303 69.2833 650.93 69.31C687.65 69.31 715.317 83.3733 733.93 111.5C752.543 139.627 761.853 172.18 761.86 209.16C761.86 245.873 752.227 277.967 732.96 305.44C713.693 332.913 686.743 346.64 652.11 346.62ZM653.11 316.15C675.557 316.15 692.333 306.367 703.44 286.8C714.547 267.233 720.1 242.567 720.1 212.8C720.1 179.667 714.417 152.537 703.05 131.41C691.683 110.283 674.25 99.7167 650.75 99.71C606.083 99.71 583.75 135.19 583.75 206.15C583.75 279.49 606.863 316.157 653.09 316.15H653.11ZM664.35 607.94H615L938.08 74.74H986.5L664.35 607.94ZM950.17 613.41C915.537 613.41 888.537 599.743 869.17 572.41C849.803 545.077 840.08 512.26 840 473.96C840 435.42 849.44 402.803 868.32 376.11C887.2 349.417 914.087 336.083 948.98 336.11C985.44 336.11 1012.91 350.173 1031.4 378.3C1049.89 406.427 1059.13 438.977 1059.14 475.95C1059.14 512.423 1049.57 544.457 1030.43 572.05C1011.29 599.643 984.53 613.43 950.15 613.41H950.17ZM950.75 582.16C973.09 582.16 989.777 572.543 1000.81 553.31C1011.84 534.077 1017.36 509.51 1017.36 479.61C1017.36 447.61 1011.78 420.773 1000.61 399.1C989.443 377.427 972.04 366.573 948.4 366.54C903.473 366.54 881.01 402.02 881.01 472.98C881.01 545.773 904.25 582.167 950.73 582.16H950.75Z" fill="#294442"/>
<path d="M760.07 621.32C764.19 613.68 759.51 604.32 754.13 597.5C748.75 590.68 742.19 583.6 742.33 574.91C742.53 562.44 755.77 555.07 766.33 548.45C774.184 543.544 781.428 537.723 787.91 531.11C790.625 528.563 792.869 525.557 794.54 522.23C796.73 517.35 796.66 511.8 796.54 506.46C796.08 488.647 795.2 470.86 793.9 453.1" stroke="#3F3D56" stroke-width="4" stroke-miterlimit="10"/>
<path d="M814.02 452.12C813.87 448.862 812.901 445.693 811.204 442.908C809.507 440.122 807.136 437.808 804.31 436.18L799.95 444.8L800.08 434.36C798 433.752 795.834 433.492 793.67 433.59C789.825 433.77 786.121 435.086 783.024 437.372C779.928 439.658 777.578 442.81 776.274 446.431C774.969 450.052 774.767 453.978 775.693 457.714C776.62 461.449 778.634 464.826 781.479 467.417C784.325 470.008 787.875 471.698 791.681 472.271C795.487 472.845 799.377 472.277 802.86 470.64C806.343 469.002 809.262 466.369 811.249 463.072C813.235 459.776 814.2 455.964 814.02 452.12V452.12Z" fill="#89A525"/>
<path d="M779.32 583.86C777.278 587.827 773.934 590.972 769.849 592.767C765.764 594.561 761.186 594.897 756.883 593.717C752.58 592.537 748.813 589.914 746.215 586.286C743.616 582.659 742.344 578.249 742.611 573.795C742.878 569.341 744.668 565.114 747.682 561.823C750.695 558.533 754.749 556.378 759.162 555.721C763.575 555.064 768.08 555.945 771.922 558.215C775.763 560.485 778.707 564.007 780.26 568.19L768.1 578.08L781.5 574.96C781.494 578.058 780.747 581.11 779.32 583.86V583.86Z" fill="#89A525"/>
<path d="M769.71 546.05C767.157 546.17 764.606 545.785 762.201 544.919C759.797 544.052 757.587 542.721 755.697 541C753.807 539.279 752.275 537.203 751.188 534.89C750.101 532.577 749.479 530.073 749.36 527.52C749.209 524.472 749.785 521.432 751.04 518.65C752.203 516.05 753.921 513.737 756.073 511.873C758.226 510.009 760.761 508.639 763.5 507.86L763.39 515.86L767.8 507.14C772.956 506.899 777.996 508.715 781.813 512.19C785.629 515.665 787.909 520.514 788.15 525.67C788.392 530.826 786.575 535.866 783.1 539.683C779.625 543.499 774.776 545.779 769.62 546.02L769.71 546.05Z" fill="#89A525"/>
<path d="M816.95 514.62C814.367 514.792 811.775 514.446 809.327 513.604C806.879 512.762 804.624 511.44 802.693 509.716C800.761 507.992 799.194 505.9 798.081 503.562C796.968 501.225 796.332 498.689 796.211 496.103C796.09 493.517 796.486 490.933 797.376 488.502C798.266 486.07 799.631 483.841 801.393 481.944C803.155 480.047 805.277 478.52 807.636 477.453C809.994 476.386 812.542 475.8 815.13 475.73C818.767 475.553 822.38 476.409 825.55 478.2L822.11 487.62L829.19 480.83C832.99 484.294 835.259 489.124 835.5 494.26C835.589 496.061 835.42 497.866 835 499.62C834.032 503.743 831.746 507.438 828.489 510.145C825.232 512.852 821.181 514.423 816.95 514.62V514.62Z" fill="#89A525"/>
<path opacity="0.1" d="M811.4 457.31C806.91 457.8 802.55 459.2 798.04 459.48C793.53 459.76 788.58 458.68 785.73 455.17C784.19 453.29 783.43 450.9 782.13 448.84C780.902 446.922 779.219 445.339 777.23 444.23C775.981 446.697 775.272 449.401 775.15 452.163C775.028 454.926 775.496 457.682 776.523 460.249C777.55 462.816 779.112 465.135 781.105 467.051C783.098 468.967 785.477 470.437 788.083 471.361C790.689 472.286 793.461 472.645 796.217 472.414C798.972 472.183 801.646 471.367 804.062 470.022C806.477 468.676 808.578 466.831 810.224 464.61C811.871 462.389 813.025 459.842 813.61 457.14C812.87 457.18 812.14 457.23 811.4 457.31Z" fill="black"/>
<path opacity="0.1" d="M816.95 514.62C813.597 514.773 810.261 514.056 807.266 512.54C804.271 511.024 801.718 508.76 799.856 505.967C797.994 503.174 796.885 499.947 796.637 496.6C796.388 493.252 797.01 489.897 798.44 486.86C799.982 487.905 801.309 489.236 802.35 490.78C803.74 492.87 804.58 495.29 806.21 497.21C809.21 500.78 814.42 501.94 819.11 501.73C823.8 501.52 828.34 500.18 833.02 499.73C833.67 499.67 834.33 499.63 835.02 499.61C834.053 503.738 831.765 507.438 828.504 510.147C825.242 512.856 821.186 514.427 816.95 514.62V514.62Z" fill="black"/>
<path opacity="0.1" d="M769.71 546.05C767.157 546.17 764.606 545.785 762.201 544.919C759.797 544.052 757.587 542.721 755.697 541C753.807 539.279 752.275 537.203 751.188 534.89C750.101 532.577 749.479 530.073 749.36 527.52C749.209 524.472 749.785 521.432 751.04 518.65C752.645 519.719 754.038 521.075 755.15 522.65C756.66 524.78 757.61 527.24 759.38 529.21C762.66 532.86 768.18 534.15 773.15 534.03C778.12 533.91 782.61 532.75 787.4 532.38C786.213 536.2 783.878 539.561 780.713 542.007C777.548 544.453 773.706 545.865 769.71 546.05V546.05Z" fill="black"/>
<path opacity="0.1" d="M779.32 583.86C777.056 588.31 773.167 591.72 768.459 593.383C763.751 595.047 758.584 594.837 754.026 592.797C749.469 590.757 745.87 587.043 743.974 582.424C742.078 577.805 742.03 572.634 743.84 567.98C745.442 569.034 746.881 570.318 748.11 571.79C749.96 574.05 751.18 576.61 753.32 578.71C757.32 582.61 763.72 584.22 769.44 584.37C772.74 584.397 776.04 584.227 779.32 583.86V583.86Z" fill="black"/>
<path d="M1061.07 620.32C1065.19 612.68 1060.51 603.32 1055.13 596.5C1049.75 589.68 1043.19 582.6 1043.33 573.91C1043.53 561.44 1056.77 554.07 1067.33 547.45C1075.18 542.544 1082.43 536.723 1088.91 530.11C1091.62 527.563 1093.87 524.557 1095.54 521.23C1097.73 516.35 1097.66 510.8 1097.54 505.46C1097.08 487.647 1096.2 469.86 1094.9 452.1" stroke="#3F3D56" stroke-width="4" stroke-miterlimit="10"/>
<path d="M1115.02 451.12C1114.87 447.862 1113.9 444.693 1112.2 441.908C1110.51 439.122 1108.14 436.808 1105.31 435.18L1100.95 443.8L1101.08 433.36C1099 432.752 1096.83 432.492 1094.67 432.59C1090.83 432.77 1087.12 434.086 1084.02 436.372C1080.93 438.658 1078.58 441.81 1077.27 445.431C1075.97 449.052 1075.77 452.978 1076.69 456.714C1077.62 460.449 1079.63 463.826 1082.48 466.417C1085.32 469.008 1088.88 470.698 1092.68 471.271C1096.49 471.845 1100.38 471.277 1103.86 469.64C1107.34 468.002 1110.26 465.369 1112.25 462.072C1114.24 458.776 1115.2 454.964 1115.02 451.12V451.12Z" fill="#89A525"/>
<path d="M1080.32 582.86C1078.28 586.827 1074.93 589.972 1070.85 591.767C1066.76 593.561 1062.19 593.897 1057.88 592.717C1053.58 591.537 1049.81 588.914 1047.21 585.286C1044.62 581.659 1043.34 577.249 1043.61 572.795C1043.88 568.341 1045.67 564.114 1048.68 560.823C1051.7 557.533 1055.75 555.378 1060.16 554.721C1064.58 554.064 1069.08 554.945 1072.92 557.215C1076.76 559.485 1079.71 563.007 1081.26 567.19L1069.1 577.08L1082.5 573.96C1082.49 577.058 1081.75 580.11 1080.32 582.86V582.86Z" fill="#89A525"/>
<path d="M1070.71 545.05C1068.16 545.17 1065.61 544.785 1063.2 543.919C1060.8 543.052 1058.59 541.721 1056.7 540C1054.81 538.279 1053.28 536.203 1052.19 533.89C1051.1 531.577 1050.48 529.073 1050.36 526.52C1050.21 523.472 1050.78 520.432 1052.04 517.65C1053.2 515.05 1054.92 512.737 1057.07 510.873C1059.23 509.009 1061.76 507.639 1064.5 506.86L1064.39 514.86L1068.8 506.14H1068.85C1071.4 506.02 1073.95 506.405 1076.36 507.272C1078.76 508.138 1080.97 509.47 1082.86 511.19C1084.75 512.911 1086.28 514.987 1087.37 517.3C1088.46 519.613 1089.08 522.117 1089.2 524.67C1089.32 527.223 1088.94 529.774 1088.07 532.179C1087.2 534.583 1085.87 536.793 1084.15 538.683C1082.43 540.572 1080.35 542.105 1078.04 543.192C1075.73 544.279 1073.22 544.9 1070.67 545.02L1070.71 545.05Z" fill="#89A525"/>
<path d="M1117.95 513.62C1115.37 513.792 1112.78 513.446 1110.33 512.604C1107.88 511.762 1105.62 510.44 1103.69 508.716C1101.76 506.992 1100.19 504.9 1099.08 502.562C1097.97 500.225 1097.33 497.689 1097.21 495.103C1097.09 492.517 1097.49 489.933 1098.38 487.502C1099.27 485.07 1100.63 482.841 1102.39 480.944C1104.15 479.047 1106.28 477.52 1108.64 476.453C1110.99 475.386 1113.54 474.8 1116.13 474.73C1119.77 474.553 1123.38 475.409 1126.55 477.2L1123.11 486.62L1130.19 479.83C1133.99 483.294 1136.26 488.124 1136.5 493.26C1136.59 495.061 1136.42 496.866 1136 498.62C1135.03 502.743 1132.75 506.438 1129.49 509.145C1126.23 511.852 1122.18 513.423 1117.95 513.62V513.62Z" fill="#89A525"/>
<path opacity="0.1" d="M1112.4 456.31C1107.91 456.8 1103.55 458.2 1099.04 458.48C1094.53 458.76 1089.58 457.68 1086.73 454.17C1085.19 452.29 1084.43 449.9 1083.13 447.84C1081.9 445.922 1080.22 444.339 1078.23 443.23C1076.98 445.697 1076.27 448.401 1076.15 451.163C1076.03 453.926 1076.5 456.682 1077.52 459.249C1078.55 461.816 1080.11 464.135 1082.11 466.051C1084.1 467.967 1086.48 469.437 1089.08 470.361C1091.69 471.286 1094.46 471.645 1097.22 471.414C1099.97 471.183 1102.65 470.367 1105.06 469.022C1107.48 467.676 1109.58 465.831 1111.22 463.61C1112.87 461.389 1114.03 458.842 1114.61 456.14C1113.87 456.18 1113.14 456.23 1112.4 456.31Z" fill="black"/>
<path opacity="0.1" d="M1117.95 513.62C1114.6 513.773 1111.26 513.056 1108.27 511.54C1105.27 510.024 1102.72 507.76 1100.86 504.967C1098.99 502.174 1097.88 498.947 1097.64 495.6C1097.39 492.252 1098.01 488.897 1099.44 485.86C1100.98 486.905 1102.31 488.236 1103.35 489.78C1104.74 491.87 1105.58 494.29 1107.21 496.21C1110.21 499.78 1115.42 500.94 1120.11 500.73C1124.8 500.52 1129.34 499.18 1134.02 498.73C1134.67 498.67 1135.33 498.63 1136.02 498.61C1135.05 502.738 1132.76 506.438 1129.5 509.147C1126.24 511.856 1122.19 513.427 1117.95 513.62V513.62Z" fill="black"/>
<path opacity="0.1" d="M1070.71 545.05C1068.16 545.17 1065.61 544.785 1063.2 543.919C1060.8 543.052 1058.59 541.721 1056.7 540C1054.81 538.279 1053.28 536.203 1052.19 533.89C1051.1 531.577 1050.48 529.073 1050.36 526.52C1050.21 523.472 1050.78 520.432 1052.04 517.65C1053.64 518.719 1055.04 520.075 1056.15 521.65C1057.66 523.78 1058.61 526.24 1060.38 528.21C1063.66 531.86 1069.18 533.15 1074.15 533.03C1078.97 532.93 1083.61 531.75 1088.4 531.38C1087.21 535.2 1084.88 538.561 1081.71 541.007C1078.55 543.453 1074.71 544.865 1070.71 545.05V545.05Z" fill="black"/>
<path opacity="0.1" d="M1080.32 582.86C1078.06 587.31 1074.17 590.72 1069.46 592.383C1064.75 594.047 1059.58 593.837 1055.03 591.797C1050.47 589.757 1046.87 586.043 1044.97 581.424C1043.08 576.805 1043.03 571.634 1044.84 566.98C1046.44 568.034 1047.88 569.318 1049.11 570.79C1050.96 573.05 1052.18 575.61 1054.32 577.71C1058.32 581.61 1064.72 583.22 1070.44 583.37C1073.74 583.397 1077.04 583.227 1080.32 582.86V582.86Z" fill="black"/>
<path d="M109.93 607.32C105.81 599.68 110.49 590.32 115.87 583.5C121.25 576.68 127.81 569.6 127.67 560.91C127.47 548.44 114.23 541.07 103.67 534.45C95.8161 529.544 88.5722 523.723 82.0899 517.11C79.3753 514.563 77.131 511.557 75.4599 508.23C73.2699 503.35 73.3399 497.8 73.4599 492.46C73.9199 474.647 74.7999 456.86 76.0999 439.1" stroke="#3F3D56" stroke-width="4" stroke-miterlimit="10"/>
<path d="M55.98 438.12C56.1304 434.862 57.0987 431.693 58.7956 428.908C60.4926 426.122 62.8636 423.808 65.69 422.18L70.05 430.8L69.92 420.36C71.9997 419.752 74.1655 419.492 76.33 419.59C80.1745 419.77 83.8792 421.086 86.9757 423.372C90.0722 425.658 92.4214 428.81 93.7262 432.431C95.0311 436.052 95.2329 439.978 94.3064 443.714C93.3798 447.449 91.3663 450.826 88.5206 453.417C85.6748 456.008 82.1246 457.698 78.3189 458.271C74.5132 458.845 70.6228 458.277 67.1398 456.64C63.6567 455.002 60.7374 452.369 58.751 449.072C56.7646 445.776 55.8003 441.964 55.98 438.12V438.12Z" fill="#89A525"/>
<path d="M90.68 569.86C92.7219 573.827 96.0657 576.972 100.151 578.767C104.236 580.561 108.814 580.897 113.117 579.717C117.42 578.537 121.187 575.914 123.785 572.286C126.384 568.659 127.656 564.249 127.389 559.795C127.122 555.341 125.331 551.114 122.318 547.823C119.304 544.533 115.251 542.378 110.838 541.721C106.425 541.064 101.92 541.945 98.0782 544.215C94.2369 546.485 91.2929 550.007 89.74 554.19L101.9 564.08L88.5 560.96C88.5056 564.058 89.2531 567.11 90.68 569.86V569.86Z" fill="#89A525"/>
<path d="M100.29 532.05C102.843 532.17 105.394 531.785 107.799 530.919C110.203 530.052 112.413 528.721 114.303 527C116.193 525.279 117.725 523.203 118.812 520.89C119.9 518.577 120.521 516.073 120.64 513.52C120.791 510.472 120.215 507.432 118.96 504.65C117.797 502.05 116.079 499.737 113.927 497.873C111.774 496.009 109.239 494.639 106.5 493.86L106.61 501.86L102.2 493.14C97.0441 492.899 92.0036 494.715 88.1872 498.19C84.3709 501.665 82.0913 506.514 81.8499 511.67C81.6086 516.826 83.4252 521.866 86.9003 525.683C90.3753 529.499 95.2241 531.779 100.38 532.02L100.29 532.05Z" fill="#89A525"/>
<path d="M53.05 500.62C55.6331 500.792 58.2246 500.446 60.6727 499.604C63.1208 498.762 65.3764 497.44 67.3075 495.716C69.2386 493.992 70.8065 491.9 71.9193 489.562C73.0322 487.225 73.6677 484.689 73.7888 482.103C73.9098 479.517 73.5139 476.933 72.6242 474.502C71.7345 472.07 70.3688 469.841 68.6072 467.944C66.8455 466.047 64.7232 464.52 62.3645 463.453C60.0057 462.386 57.4579 461.8 54.87 461.73C51.2499 461.562 47.6558 462.418 44.5 464.2L47.94 473.62L40.81 466.86C37.0172 470.316 34.7483 475.135 34.5 480.26C34.4114 482.061 34.5798 483.866 35 485.62C35.9677 489.743 38.2536 493.438 41.5109 496.145C44.7682 498.852 48.8193 500.423 53.05 500.62Z" fill="#89A525"/>
<path opacity="0.1" d="M58.5999 443.31C63.0899 443.8 67.4499 445.2 71.9599 445.48C76.4699 445.76 81.4199 444.68 84.2699 441.17C85.8099 439.29 86.5699 436.9 87.8699 434.84C89.0976 432.922 90.781 431.339 92.7699 430.23C94.019 432.697 94.7282 435.401 94.8502 438.163C94.9722 440.926 94.5041 443.682 93.4773 446.249C92.4504 448.816 90.8883 451.135 88.895 453.051C86.9016 454.967 84.5229 456.437 81.9172 457.361C79.3115 458.286 76.5387 458.645 73.7834 458.414C71.0282 458.183 68.3538 457.367 65.9385 456.022C63.5231 454.676 61.4222 452.831 59.7757 450.61C58.1292 448.389 56.975 445.842 56.3899 443.14C57.1299 443.18 57.8599 443.23 58.5999 443.31Z" fill="black"/>
<path opacity="0.1" d="M53.05 500.62C56.4034 500.773 59.7394 500.056 62.7344 498.54C65.7295 497.024 68.2819 494.76 70.1442 491.967C72.0065 489.174 73.1155 485.947 73.3635 482.6C73.6116 479.252 72.9903 475.897 71.56 472.86C70.0182 473.905 68.691 475.236 67.65 476.78C66.26 478.87 65.42 481.29 63.79 483.21C60.79 486.78 55.58 487.94 50.89 487.73C46.2 487.52 41.66 486.18 36.98 485.73C36.33 485.67 35.67 485.63 34.98 485.61C35.9468 489.738 38.2348 493.438 41.4963 496.147C44.7578 498.856 48.8145 500.427 53.05 500.62V500.62Z" fill="black"/>
<path opacity="0.1" d="M100.29 532.05C102.843 532.17 105.395 531.785 107.799 530.919C110.203 530.052 112.413 528.721 114.303 527C116.193 525.279 117.725 523.203 118.812 520.89C119.9 518.577 120.521 516.073 120.64 513.52C120.791 510.472 120.216 507.432 118.96 504.65C117.356 505.719 115.962 507.075 114.85 508.65C113.34 510.78 112.39 513.24 110.62 515.21C107.34 518.86 101.82 520.15 96.8501 520.03C92.0301 519.93 87.3901 518.75 82.6001 518.38C83.7874 522.2 86.1224 525.561 89.2875 528.007C92.4527 530.453 96.2943 531.865 100.29 532.05V532.05Z" fill="black"/>
<path opacity="0.1" d="M90.6799 569.86C92.9444 574.31 96.8328 577.72 101.541 579.383C106.249 581.047 111.416 580.837 115.974 578.797C120.531 576.757 124.13 573.043 126.026 568.424C127.922 563.805 127.97 558.634 126.16 553.98C124.558 555.034 123.119 556.318 121.89 557.79C120.04 560.05 118.82 562.61 116.68 564.71C112.68 568.61 106.28 570.22 100.56 570.37C97.2594 570.397 93.9602 570.227 90.6799 569.86V569.86Z" fill="black"/>
<path d="M673.5 513.61C673.519 511.186 672.969 508.79 671.896 506.616C670.823 504.442 669.256 502.55 667.32 501.09C667.08 491.92 660.54 484.43 652.13 483.27C651.48 480.154 650.022 477.265 647.901 474.892C645.781 472.518 643.073 470.745 640.05 469.75V469.75C639.314 469.517 638.562 469.34 637.8 469.22H637.58L637.19 469.17H636.86H636.53H636.1H635.84H635.13C626.55 469.17 619.41 475.73 617.94 484.38C612.39 483.1 607.3 484.76 606.39 488.27C606.155 489.2 606.207 490.18 606.54 491.08C607.48 493.8 610.54 496.4 614.69 497.69L615.23 497.85C615.5 497.93 615.77 497.99 616.04 498.05H616.22C614.694 501.303 614.478 505.018 615.615 508.426C616.752 511.835 619.157 514.675 622.33 516.36C622.205 516.428 622.085 516.505 621.97 516.59C621.457 517.06 621.049 517.633 620.77 518.27C619.767 520.03 618.988 521.907 618.45 523.86C618.05 525.53 617.98 527.28 617.45 528.93C616.54 531.93 614.2 534.56 613.93 537.75C613.81 539.17 614.04 540.84 613.03 541.81C612.779 542.026 612.511 542.224 612.23 542.4C611.522 542.884 610.923 543.511 610.47 544.24C610.175 544.843 609.78 545.391 609.3 545.86C608.39 546.55 606.89 546.48 606.44 547.54C605.99 548.6 607.15 549.85 606.88 551.01C606.66 551.95 605.63 552.38 604.88 553.01C604.041 553.92 603.455 555.033 603.18 556.24C601.686 556.528 600.147 556.483 598.673 556.108C597.198 555.733 595.825 555.037 594.65 554.07C595.053 555.1 595.348 556.169 595.53 557.26C594.34 555.99 592.38 555.62 590.93 554.96C589.06 554.103 587.391 552.863 586.03 551.32L588.65 550.96L577.05 533.36L573.63 532.66L576.7 538.55C576.449 538.671 576.228 538.847 576.055 539.065C575.882 539.283 575.76 539.538 575.7 539.81C575.535 540.463 575.494 541.142 575.58 541.81C575.743 543.389 576.006 544.955 576.37 546.5L577.26 550.64C577.335 551.028 577.432 551.412 577.55 551.79C576.39 551.748 575.231 551.88 574.11 552.18C571.811 551.33 569.416 550.762 566.98 550.49C566.444 550.396 565.894 550.423 565.37 550.57C564.776 550.844 564.26 551.264 563.87 551.79C561.87 554.102 560.095 556.6 558.57 559.25C552.34 570.09 544.02 579.55 536.23 589.35C530.85 591.54 525.43 593.62 520 595.68L508.33 600.13C506 601.02 503.58 601.93 501.1 601.77C499.98 601.7 498.62 601.53 497.99 602.48C497.683 602.951 497.444 603.463 497.28 604C496.87 604 496.46 604.1 496.08 604.12H496.01C495.27 602.28 494.63 600.31 493.21 598.97C492.924 599.014 492.654 599.128 492.423 599.303C492.193 599.477 492.01 599.707 491.89 599.97C491.61 600.49 491.44 601.06 491.12 601.54C490.49 602.46 489.4 602.91 488.62 603.69C487.84 604.47 487.35 605.69 486.51 606.45C485.334 607.305 483.955 607.839 482.51 608C480.345 608.51 478.257 609.303 476.3 610.36C475.578 610.804 474.806 611.16 474 611.42C473.114 611.59 472.206 611.62 471.31 611.51L465.13 611.06C464.58 610.988 464.022 611.012 463.48 611.13C462.843 611.363 462.302 611.801 461.94 612.374C461.578 612.948 461.417 613.625 461.48 614.3C461.555 614.97 461.767 615.617 462.103 616.202C462.438 616.787 462.89 617.297 463.43 617.7C464.503 618.487 465.69 619.104 466.95 619.53C472.32 621.61 477.857 623.232 483.5 624.38V625.63C487.412 627.6 491.73 628.627 496.11 628.63C496.433 628.655 496.757 628.597 497.05 628.46C497.455 628.156 497.736 627.715 497.84 627.22C499.151 623.298 499.981 619.232 500.31 615.11C501.082 615.06 501.839 614.867 502.54 614.54C504.67 613.96 506.78 615.42 508.97 615.66C511.67 615.95 514.18 614.38 516.73 613.41C517.1 613.27 517.47 613.15 517.84 613.03C517.113 613.971 516.254 614.803 515.29 615.5C514.23 616.26 513.04 616.82 512 617.61C511.136 618.4 510.209 619.119 509.23 619.76C508.54 620.082 507.828 620.356 507.1 620.58C506.045 620.965 505.038 621.472 504.1 622.09C503.26 622.585 502.548 623.27 502.02 624.09C501.754 624.473 501.591 624.917 501.546 625.381C501.5 625.845 501.574 626.312 501.761 626.739C501.947 627.166 502.24 627.539 502.611 627.82C502.982 628.102 503.419 628.285 503.88 628.35C504.715 628.498 505.568 628.522 506.41 628.42C509.75 628.17 513.08 627.86 516.41 627.56C517.82 627.466 519.22 627.265 520.6 626.96C521.33 626.78 522.05 626.54 522.78 626.35C524.025 626.021 525.303 625.83 526.59 625.78C526.964 625.751 527.34 625.788 527.7 625.89C528.48 626.14 529.03 626.89 529.82 627.09C530.333 627.14 530.85 627.068 531.33 626.88C533.768 626.351 536.255 626.086 538.75 626.09C539.84 626.03 541.12 625.82 541.63 624.81C542.25 623.56 541.21 622.16 540.8 620.81C540.591 619.952 540.477 619.073 540.46 618.19C540.27 616.011 539.644 613.893 538.62 611.96C538.076 611.058 537.617 610.107 537.25 609.12C542.029 607.302 546.601 604.983 550.89 602.2C553.35 600.67 555.89 599.02 558.67 598.46C561.91 597.81 565.25 598.67 568.44 599.59C576.039 601.788 583.513 604.395 590.83 607.4C594.33 608.83 597.83 610.35 601.41 611.4C602.457 612.812 603.723 614.048 605.16 615.06C607.56 616.61 610.49 617.06 613.31 617.28C617.12 617.628 620.945 617.772 624.77 617.71C627.69 617.66 630.7 617.46 633.31 616.13C633.948 615.803 634.548 615.407 635.1 614.95C637.1 615.31 639.15 614.24 640.72 612.87C642.798 611.102 644.296 608.75 645.02 606.12C645.94 602.51 645.23 598.3 647.45 595.35C648.04 594.56 648.81 593.92 649.39 593.12C650.104 592.049 650.455 590.776 650.39 589.49L650.49 589.34C650.992 588.18 651.329 586.954 651.49 585.7C651.753 584.72 652.087 583.761 652.49 582.83C653.617 580.04 654.599 577.192 655.43 574.3C656.008 572.381 656.462 570.427 656.79 568.45C657.03 566.87 657.17 565.28 657.3 563.69C657.46 561.201 657.945 558.744 658.74 556.38C660.714 550.739 661.83 544.833 662.05 538.86C662.05 538.74 662.05 538.63 662.05 538.51C664.953 538.192 667.633 536.802 669.566 534.612C671.499 532.422 672.545 529.59 672.5 526.67C672.503 524.91 672.135 523.169 671.42 521.56C672.8 519.139 673.517 516.397 673.5 513.61V513.61ZM616.95 582.32C617.12 582.93 617.32 583.54 617.52 584.15C616.6 583.24 615.69 582.3 614.76 581.4C615.13 581.51 615.5 581.63 615.86 581.76C616.243 581.912 616.612 582.099 616.96 582.32H616.95ZM612.47 579.32C607.01 574.58 600.69 570.9 595.1 566.32C598.1 567.83 601.1 569.58 604.1 571.26C607.593 573.26 611.127 575.173 614.7 577C614.114 577.889 613.368 578.662 612.5 579.28L612.47 579.32ZM614.8 567.38L615.06 567.11C615.06 567.78 615.06 568.41 615.06 568.98C614.57 568.82 614.06 568.66 613.59 568.48C614.022 568.128 614.429 567.747 614.81 567.34L614.8 567.38ZM566.73 580.22C568.978 577.677 570.934 574.89 572.56 571.91C574.72 575.7 578.24 578.43 581.24 581.6C576.42 580.92 571.59 580.39 566.74 580.18L566.73 580.22Z" fill="url(#paint0_linear)"/>
<path d="M574.53 534.12L577.98 534.82L589.73 552.18L584.54 552.88L574.53 534.12Z" fill="#2F2E41"/>
<path d="M490.98 604.58C491.91 607.657 493.056 610.664 494.41 613.58C498.303 612.765 502.133 611.673 505.87 610.31C505.147 609.183 504.352 608.105 503.49 607.08C502.571 606.059 501.473 605.215 500.25 604.59C499.06 604.07 497.59 604.46 496.32 604.53C494.54 604.597 492.76 604.613 490.98 604.58Z" fill="#FBBEBE"/>
<path d="M500.27 609.22C498.33 608.61 497.14 606.65 496.35 604.76C495.56 602.87 494.92 600.81 493.42 599.42C493.135 599.465 492.865 599.579 492.634 599.754C492.404 599.928 492.22 600.157 492.1 600.42C491.81 600.92 491.64 601.49 491.31 601.97C490.69 602.87 489.59 603.31 488.8 604.08C488.01 604.85 487.52 606.02 486.67 606.79C485.491 607.638 484.113 608.168 482.67 608.33C480.49 608.824 478.385 609.604 476.41 610.65C475.679 611.074 474.9 611.409 474.09 611.65C473.197 611.82 472.283 611.85 471.38 611.74L465.15 611.29C464.596 611.221 464.035 611.248 463.49 611.37C462.855 611.591 462.313 612.018 461.951 612.584C461.588 613.15 461.426 613.821 461.49 614.49C461.573 615.157 461.793 615.799 462.138 616.375C462.482 616.952 462.942 617.451 463.49 617.84C464.573 618.614 465.767 619.221 467.03 619.64C472.458 621.681 478.043 623.276 483.73 624.41V625.64C487.682 627.596 492.03 628.623 496.44 628.64C496.782 628.67 497.127 628.612 497.44 628.47C497.845 628.173 498.129 627.74 498.24 627.25C499.735 622.881 500.607 618.323 500.83 613.71C500.945 612.544 500.857 611.366 500.57 610.23C500.23 609.11 501.39 609.58 500.31 609.14" fill="#2F2E41"/>
<path d="M619.71 585.74C601.24 586.86 583 581.44 564.5 580.86C562.204 580.72 559.899 580.868 557.64 581.3C555.285 581.931 553.005 582.817 550.84 583.94C540.93 588.55 530.67 592.37 520.42 596.19L508.66 600.57C506.3 601.44 503.87 602.33 501.36 602.18C500.24 602.11 498.87 601.94 498.23 602.88C496.32 605.71 497.23 609.88 498.49 613.06C498.9 614.06 499.59 615.21 500.69 615.33C501.468 615.277 502.23 615.084 502.94 614.76C505.08 614.19 507.22 615.63 509.42 615.86C512.15 616.15 514.68 614.6 517.25 613.65C521.51 612.08 526.17 612.13 530.65 611.38C538.17 610.13 545.13 606.64 551.65 602.66C554.13 601.15 556.65 599.53 559.49 598.98C562.76 598.34 566.13 599.18 569.34 600.09C576.993 602.256 584.527 604.823 591.91 607.78C595.753 609.45 599.694 610.886 603.71 612.08C612.464 614.385 621.723 613.845 630.15 610.54C633.15 609.37 636.31 607.31 636.48 604.12C636.58 602.3 635.17 600.7 634.23 599.12C633.62 598.12 633.02 597.12 632.36 596.17C629.18 591.53 625.32 585.4 619.71 585.74Z" fill="#2F2E41"/>
<path opacity="0.1" d="M619.71 585.74C601.24 586.86 583 581.44 564.5 580.86C562.204 580.72 559.899 580.868 557.64 581.3C555.285 581.931 553.005 582.817 550.84 583.94C540.93 588.55 530.67 592.37 520.42 596.19L508.66 600.57C506.3 601.44 503.87 602.33 501.36 602.18C500.24 602.11 498.87 601.94 498.23 602.88C496.32 605.71 497.23 609.88 498.49 613.06C498.9 614.06 499.59 615.21 500.69 615.33C501.468 615.277 502.23 615.084 502.94 614.76C505.08 614.19 507.22 615.63 509.42 615.86C512.15 616.15 514.68 614.6 517.25 613.65C521.51 612.08 526.17 612.13 530.65 611.38C538.17 610.13 545.13 606.64 551.65 602.66C554.13 601.15 556.65 599.53 559.49 598.98C562.76 598.34 566.13 599.18 569.34 600.09C576.993 602.256 584.527 604.823 591.91 607.78C595.753 609.45 599.694 610.886 603.71 612.08C612.464 614.385 621.723 613.845 630.15 610.54C633.15 609.37 636.31 607.31 636.48 604.12C636.58 602.3 635.17 600.7 634.23 599.12C633.62 598.12 633.02 597.12 632.36 596.17C629.18 591.53 625.32 585.4 619.71 585.74Z" fill="black"/>
<path d="M526.43 605.48C529.323 606.46 532.237 607.367 535.17 608.2C536.82 605.49 539.9 603.61 540.6 600.52C540.64 600.386 540.64 600.244 540.6 600.11C540.523 599.978 540.408 599.874 540.27 599.81C538.162 598.647 535.823 597.964 533.42 597.81C531.52 597.69 530.66 599.67 529.8 601.06C529.5 601.62 527.2 605.74 526.43 605.48Z" fill="#FBBEBE"/>
<path d="M530.5 603.5C529.636 603.356 528.812 603.034 528.081 602.554C527.349 602.073 526.725 601.445 526.25 600.71C525.84 600 525.41 599.04 524.59 599.09C523.77 599.14 523.49 600.04 523.32 600.79C522.766 603.592 521.966 606.339 520.93 609C519.885 611.669 518.115 613.993 515.82 615.71C514.75 616.45 513.56 617.01 512.51 617.79C511.635 618.57 510.699 619.279 509.71 619.91C509.014 620.228 508.295 620.496 507.56 620.71C506.483 621.086 505.452 621.586 504.49 622.2C503.647 622.694 502.931 623.379 502.4 624.2C502.144 624.617 501.994 625.09 501.962 625.578C501.931 626.066 502.02 626.554 502.22 627C502.436 627.362 502.725 627.675 503.07 627.918C503.414 628.161 503.806 628.329 504.22 628.41C505.063 628.55 505.921 628.57 506.77 628.47C510.14 628.22 513.5 627.92 516.86 627.62C518.282 627.532 519.696 627.338 521.09 627.04C521.83 626.86 522.55 626.62 523.28 626.43C524.54 626.109 525.831 625.921 527.13 625.87C527.507 625.841 527.886 625.879 528.25 625.98C529.03 626.23 529.58 626.98 530.38 627.16C530.895 627.214 531.416 627.145 531.9 626.96C534.359 626.44 536.866 626.178 539.38 626.18C540.48 626.12 541.78 625.91 542.28 624.92C542.91 623.69 541.87 622.31 541.45 620.99C541.243 620.145 541.125 619.28 541.1 618.41C540.911 616.261 540.281 614.175 539.25 612.28C538.39 610.7 537.25 608.96 537.82 607.28C538.127 606.756 538.321 606.173 538.39 605.57C538.25 602.86 532.02 603.86 530.5 603.5Z" fill="#2F2E41"/>
<path d="M592.02 556.12C588.748 554.676 586.126 552.072 584.66 548.81C584.36 548.11 584.1 547.38 583.81 546.67C582.837 544.323 581.33 542.234 579.41 540.57C579.205 540.344 578.952 540.165 578.671 540.046C578.389 539.927 578.086 539.87 577.78 539.88C577.485 539.968 577.218 540.133 577.007 540.358C576.796 540.583 576.649 540.859 576.58 541.16C576.409 541.812 576.365 542.491 576.45 543.16C576.621 544.712 576.888 546.251 577.25 547.77L578.15 551.85C578.264 552.477 578.452 553.088 578.71 553.67C579.095 554.354 579.604 554.961 580.21 555.46C581.03 556.22 581.86 556.95 582.7 557.66C583.163 558.079 583.669 558.448 584.21 558.76C585.097 559.181 586.046 559.457 587.02 559.58C590.69 560.26 594.42 561.24 597.51 563.58C597.51 563.58 597.51 560.85 597.44 560.58C597.403 559.789 597.131 559.027 596.66 558.39C595.5 557.14 593.5 556.77 592.02 556.12Z" fill="#FBBEBE"/>
<path opacity="0.1" d="M592.02 556.12C588.748 554.676 586.126 552.072 584.66 548.81C584.36 548.11 584.1 547.38 583.81 546.67C582.837 544.323 581.33 542.234 579.41 540.57C579.205 540.344 578.952 540.165 578.671 540.046C578.389 539.927 578.086 539.87 577.78 539.88C577.485 539.968 577.218 540.133 577.007 540.358C576.796 540.583 576.649 540.859 576.58 541.16C576.409 541.812 576.365 542.491 576.45 543.16C576.621 544.712 576.888 546.251 577.25 547.77L578.15 551.85C578.264 552.477 578.452 553.088 578.71 553.67C579.095 554.354 579.604 554.961 580.21 555.46C581.03 556.22 581.86 556.95 582.7 557.66C583.163 558.079 583.669 558.448 584.21 558.76C585.097 559.181 586.046 559.457 587.02 559.58C590.69 560.26 594.42 561.24 597.51 563.58C597.51 563.58 597.51 560.85 597.44 560.58C597.403 559.789 597.131 559.027 596.66 558.39C595.5 557.14 593.5 556.77 592.02 556.12Z" fill="black"/>
<path d="M629.62 524.92C632.1 524.92 634.11 522.896 634.11 520.4C634.11 517.904 632.1 515.88 629.62 515.88C627.14 515.88 625.13 517.904 625.13 520.4C625.13 522.896 627.14 524.92 629.62 524.92Z" fill="#2F2E41"/>
<path d="M626.84 517.67C625.634 517.395 624.369 517.577 623.29 518.18C622.771 518.639 622.358 519.205 622.08 519.84C621.07 521.567 620.284 523.415 619.74 525.34C619.34 526.99 619.27 528.71 618.74 530.34C617.82 533.34 615.46 535.89 615.19 539.02C615.07 540.42 615.3 542.07 614.28 543.02C614.026 543.232 613.755 543.423 613.47 543.59C612.76 544.067 612.157 544.687 611.7 545.41C611.394 546.059 610.971 546.646 610.45 547.14C609.53 547.82 608.02 547.75 607.57 548.8C607.12 549.85 608.28 551.07 608.01 552.21C607.79 553.14 606.75 553.57 606.01 554.21C605.167 555.103 604.577 556.204 604.3 557.4C602.798 557.683 601.252 557.637 599.769 557.266C598.287 556.895 596.902 556.207 595.71 555.25C596.96 558.34 596.99 561.75 597.04 565.08C597.184 566.145 596.9 567.224 596.25 568.08C599.83 568.16 603.31 569.08 606.8 569.91C608.292 570.41 609.907 570.41 611.4 569.91C612.198 569.48 612.912 568.911 613.51 568.23C615.41 566.3 617.4 564.23 617.86 561.54C617.982 560.026 618.008 558.507 617.94 556.99C618.124 555.117 618.509 553.27 619.09 551.48C620.094 547.764 620.764 543.965 621.09 540.13C621.3 537.76 623.34 535.86 624.42 533.74C626.42 529.74 628.52 525.59 628.68 521.11C628.82 519.65 628.32 517.86 626.84 517.67Z" fill="#2F2E41"/>
<path opacity="0.1" d="M626.84 517.67C625.634 517.395 624.369 517.577 623.29 518.18C622.771 518.639 622.358 519.205 622.08 519.84C621.07 521.567 620.284 523.415 619.74 525.34C619.34 526.99 619.27 528.71 618.74 530.34C617.82 533.34 615.46 535.89 615.19 539.02C615.07 540.42 615.3 542.07 614.28 543.02C614.026 543.232 613.755 543.423 613.47 543.59C612.76 544.067 612.157 544.687 611.7 545.41C611.394 546.059 610.971 546.646 610.45 547.14C609.53 547.82 608.02 547.75 607.57 548.8C607.12 549.85 608.28 551.07 608.01 552.21C607.79 553.14 606.75 553.57 606.01 554.21C605.167 555.103 604.577 556.204 604.3 557.4C602.798 557.683 601.252 557.637 599.769 557.266C598.287 556.895 596.902 556.207 595.71 555.25C596.96 558.34 596.99 561.75 597.04 565.08C597.184 566.145 596.9 567.224 596.25 568.08C599.83 568.16 603.31 569.08 606.8 569.91C608.292 570.41 609.907 570.41 611.4 569.91C612.198 569.48 612.912 568.911 613.51 568.23C615.41 566.3 617.4 564.23 617.86 561.54C617.982 560.026 618.008 558.507 617.94 556.99C618.124 555.117 618.509 553.27 619.09 551.48C620.094 547.764 620.764 543.965 621.09 540.13C621.3 537.76 623.34 535.86 624.42 533.74C626.42 529.74 628.52 525.59 628.68 521.11C628.82 519.65 628.32 517.86 626.84 517.67Z" fill="black"/>
<path d="M622.64 589.63C618.79 587.8 615.98 584.39 612.87 581.47C606.93 575.89 599.67 571.95 593.43 566.72C589.3 563.26 585.6 559.23 581.05 556.33C577.048 553.777 572.51 552.185 567.79 551.68C567.251 551.586 566.697 551.613 566.17 551.76C565.574 552.027 565.055 552.44 564.66 552.96C562.644 555.232 560.852 557.693 559.31 560.31C551.4 573.73 540.17 585.02 530.86 597.51C530.561 597.804 530.384 598.2 530.364 598.619C530.344 599.037 530.481 599.448 530.75 599.77L532.64 603.48C533.7 605.55 535.4 607.97 537.64 607.56C538.668 607.264 539.588 606.677 540.29 605.87L548.79 597.74L557.7 589.22C562.92 584.22 568.23 579.12 571.64 572.74C574.3 577.35 579.02 580.37 582.26 584.6C583.49 586.2 584.49 587.97 585.59 589.67C587.36 592.4 589.36 594.96 591.36 597.51L601.59 610.56C602.881 612.419 604.481 614.042 606.32 615.36C608.74 616.89 611.69 617.3 614.54 617.55C618.38 617.9 622.235 618.04 626.09 617.97C629.03 617.92 632.09 617.73 634.69 616.42C637.29 615.11 639.5 612.42 639.36 609.49C639.201 607.955 638.699 606.475 637.89 605.16C634.28 598.46 629.5 592.86 622.64 589.63Z" fill="#2F2E41"/>
<path d="M632.38 527C634.285 527 635.83 525.446 635.83 523.53C635.83 521.614 634.285 520.06 632.38 520.06C630.475 520.06 628.93 521.614 628.93 523.53C628.93 525.446 630.475 527 632.38 527Z" fill="#E8E8F0"/>
<path d="M631.62 520.92C632.4 522.472 632.536 524.268 632 525.92C631.467 527.545 630.72 529.092 629.78 530.52C628.971 531.995 628.002 533.377 626.89 534.64C632.22 534.9 637.39 532.81 642.09 530.27C645.88 528.27 649.66 525.72 651.68 521.91C651.079 522.053 650.454 522.07 649.846 521.958C649.239 521.846 648.661 521.608 648.15 521.26C647.133 520.551 646.221 519.703 645.44 518.74L642.77 515.74C642.14 515.082 641.586 514.354 641.12 513.57C640.536 512.505 640.288 511.288 640.41 510.08C639.347 511.193 638.159 512.179 636.87 513.02C634.96 514.27 632.87 515.17 630.94 516.4C630.26 516.84 628.75 517.55 629.14 518.4C629.53 519.25 631.08 519.96 631.62 520.92Z" fill="#FBBEBE"/>
<path opacity="0.1" d="M631.62 520.92C632.4 522.472 632.536 524.268 632 525.92C631.467 527.545 630.72 529.092 629.78 530.52C628.971 531.995 628.002 533.377 626.89 534.64C632.22 534.9 637.39 532.81 642.09 530.27C645.88 528.27 649.66 525.72 651.68 521.91C651.079 522.053 650.454 522.07 649.846 521.958C649.239 521.846 648.661 521.608 648.15 521.26C647.133 520.551 646.221 519.703 645.44 518.74L642.77 515.74C642.14 515.082 641.586 514.354 641.12 513.57C640.536 512.505 640.288 511.288 640.41 510.08C639.347 511.193 638.159 512.179 636.87 513.02C634.96 514.27 632.87 515.17 630.94 516.4C630.26 516.84 628.75 517.55 629.14 518.4C629.53 519.25 631.08 519.96 631.62 520.92Z" fill="black"/>
<path d="M631.69 521.44C631.151 522.202 630.862 523.112 630.862 524.045C630.862 524.978 631.151 525.888 631.69 526.65C631.84 526.84 632.41 528.03 632.69 528.04C632.926 528.02 633.145 527.909 633.3 527.73C634.508 526.468 635.637 525.132 636.68 523.73C637.734 522.31 639.258 521.311 640.98 520.91C643.07 520.58 645.08 521.69 646.91 522.75C647.696 523.141 648.381 523.709 648.91 524.41C649.296 525.105 649.524 525.877 649.58 526.67C650.105 531.438 650.306 536.235 650.18 541.03C650.277 544.487 650.05 547.946 649.5 551.36C649.16 553.12 648.65 554.84 648.41 556.62C648.235 558.187 648.165 559.764 648.2 561.34V567.94C648.156 569.149 648.243 570.36 648.46 571.55C648.873 572.97 649.357 574.368 649.91 575.74C650.397 577.372 650.732 579.046 650.91 580.74L651.81 587.57C652.1 589.73 652.31 592.08 651 593.81C650.42 594.6 649.64 595.22 649 596C646.75 598.86 647.5 603.01 646.5 606.56C645.76 609.165 644.247 611.484 642.16 613.21C640.57 614.56 638.51 615.63 636.45 615.21C633.68 614.69 632.01 611.8 631.25 609.07C630.49 606.34 630.25 603.36 628.58 601.07C627.24 599.18 625.17 598 623.3 596.65C621.43 595.3 619.59 593.57 619.18 591.29C619 590.29 619.11 589.29 619.01 588.29C618.861 587.016 618.373 585.805 617.595 584.784C616.817 583.764 615.779 582.971 614.59 582.49C613.17 581.94 611.41 581.74 610.59 580.49C612.626 579.211 614.11 577.217 614.75 574.9C615.371 572.617 615.707 570.266 615.75 567.9L616.23 559.96C616.44 556.41 616.54 552.89 618.1 549.7C618.8 548.28 619.67 546.94 620.39 545.53C621.355 543.551 622.177 541.506 622.85 539.41C623.98 536.16 625.12 532.9 626.13 529.61C626.534 528.017 627.139 526.481 627.93 525.04C628.86 523.54 630.09 521.74 631.69 521.44Z" fill="#E8E8F0"/>
<path d="M614.06 573.03L616.16 573.1L616.61 569.93C616.67 569.296 616.818 568.673 617.05 568.08C617.399 567.454 617.804 566.862 618.26 566.31C620.33 563.39 620.18 559.51 620.69 555.96C621.37 551.23 623.35 546.79 625.31 542.43L629.39 533.34C629.753 532.593 630.045 531.813 630.26 531.01C630.438 530.125 630.522 529.223 630.51 528.32C630.51 526.92 630.97 521.81 631 520.4C631 519.88 629.86 520.17 629.62 519.71C629.11 518.71 628.41 521.43 627.45 522.03C626.545 522.722 625.886 523.686 625.57 524.78C624.69 527.07 624.15 529.48 623.33 531.78C622.611 534.135 621.299 536.267 619.52 537.97C618.69 538.71 617.72 539.29 616.93 540.07C614.39 542.58 614.15 546.54 614.06 550.07C614 552.26 613.59 573.03 614.06 573.03Z" fill="#2F2E41"/>
<path d="M644.31 517.65C642.31 518.45 641.15 520.65 640.58 522.79C640.01 524.93 639.77 527.19 638.67 529.09C636.11 533.55 629.58 534.85 627.77 539.67C627.309 541.298 627.064 542.979 627.04 544.67C626.72 548.12 625.58 551.46 625.24 554.91C625.063 557.594 625.127 560.288 625.43 562.96L627.72 590.19C628.164 594.2 627.931 598.257 627.03 602.19C629.378 602.528 631.774 602.134 633.89 601.06C636.04 600.06 638 598.74 640.06 597.6C643.61 595.6 647.53 594.25 650.63 591.6C651.192 591.162 651.676 590.631 652.06 590.03C652.558 588.885 652.894 587.677 653.06 586.44C653.323 585.477 653.657 584.534 654.06 583.62C655.208 580.875 656.21 578.071 657.06 575.22C657.642 573.329 658.1 571.401 658.43 569.45C658.68 567.9 658.81 566.33 658.95 564.77C659.11 562.316 659.598 559.895 660.4 557.57C662.384 552.024 663.507 546.206 663.73 540.32C663.799 539.47 663.742 538.614 663.56 537.78C663.215 536.769 662.751 535.802 662.18 534.9C661.23 533.11 660.66 531.14 659.76 529.33C657.76 525.23 654.17 522.12 650.42 519.51C648.5 518.24 646.39 516.86 644.31 517.65Z" fill="#2F2E41"/>
<path d="M596.57 562.08C594.946 561.231 593.475 560.115 592.22 558.78C591.65 558.11 591.22 557.36 590.6 556.7C589.131 555.134 587.225 554.047 585.13 553.58C583.049 553.121 580.92 552.917 578.79 552.97C577.367 552.872 575.938 553.045 574.58 553.48C573.898 553.703 573.283 554.095 572.794 554.62C572.304 555.144 571.955 555.784 571.78 556.48C571.47 558.18 572.58 559.83 573.91 560.91C575.147 561.92 576.602 562.629 578.16 562.98C579.431 563.2 580.713 563.35 582 563.43C589.56 564.22 596.31 568.33 602.93 572.08C608.75 575.367 614.683 578.443 620.73 581.31C620.97 579.5 621.07 577.675 621.03 575.85C621.03 574.49 620.93 572.41 619.64 571.61C618.14 570.67 615.64 570.46 613.98 569.9C610.083 568.628 606.277 567.092 602.59 565.3C600.5 564.29 598.5 563.22 596.57 562.08Z" fill="#FBBEBE"/>
<path d="M629.62 519.37C637.059 519.37 643.09 513.303 643.09 505.82C643.09 498.337 637.059 492.27 629.62 492.27C622.181 492.27 616.15 498.337 616.15 505.82C616.15 513.303 622.181 519.37 629.62 519.37Z" fill="#FBBEBE"/>
<path d="M648.16 533.01C647.088 534.517 646.211 536.153 645.55 537.88C643.88 541.31 641.27 544.25 639.97 547.88C638.59 551.65 638.64 556.14 635.97 559.11C635.433 559.56 635.029 560.148 634.8 560.81C634.784 561.223 634.737 561.634 634.66 562.04C634.28 563.12 632.51 563.17 632.18 564.27C632.09 564.59 632.18 564.94 632.02 565.27C631.75 565.98 630.82 566.08 630.19 566.51C628.88 567.4 629.19 569.46 628.19 570.74C627.784 571.215 627.259 571.575 626.669 571.782C626.079 571.989 625.444 572.037 624.83 571.92C623.604 571.662 622.424 571.22 621.33 570.61C620.945 570.394 620.519 570.261 620.08 570.22C619.558 570.231 619.052 570.402 618.63 570.71C616.14 572.29 614.97 575.43 614.99 578.39C615.166 581.35 615.867 584.255 617.06 586.97C617.201 587.439 617.436 587.875 617.75 588.25C618.57 589.12 620.01 588.98 621.11 588.49C622.141 587.88 623.238 587.39 624.38 587.03C626.46 586.65 628.5 588.09 630.61 587.97C632.154 587.735 633.607 587.093 634.82 586.11C636.962 584.809 638.88 583.172 640.5 581.26C641.42 580.05 642.1 578.67 642.91 577.38C643.944 575.795 645.08 574.279 646.31 572.84L654.08 563.33C654.86 562.429 655.559 561.462 656.17 560.44C656.871 559.057 657.417 557.602 657.8 556.1C658.632 553.594 659.173 551 659.41 548.37C659.45 546.193 659.259 544.017 658.84 541.88C658.579 539.754 658.017 537.677 657.17 535.71C655.44 532.21 651.33 529.31 648.16 533.01Z" fill="#2F2E41"/>
<path d="M675.22 515.36C675.231 512.958 674.67 510.587 673.585 508.443C672.501 506.3 670.922 504.444 668.98 503.03C668.921 498.765 667.35 494.659 664.546 491.445C661.742 488.231 657.887 486.117 653.67 485.48C652.855 481.44 650.64 477.817 647.415 475.251C644.191 472.684 640.164 471.337 636.044 471.448C631.924 471.56 627.975 473.121 624.894 475.858C621.813 478.595 619.796 482.332 619.2 486.41C613.6 485.15 608.48 486.79 607.55 490.24C606.55 493.85 610.55 498.07 616.47 499.67C618.325 500.194 620.258 500.387 622.18 500.24C623.557 502.261 625.341 503.973 627.417 505.264C629.494 506.556 631.818 507.399 634.24 507.74C634.951 511.002 636.559 514 638.882 516.398C641.206 518.795 644.152 520.497 647.39 521.31C648.286 523.475 649.676 525.399 651.45 526.93C651.45 527.35 651.38 527.78 651.38 528.22C651.316 529.757 651.563 531.292 652.107 532.731C652.65 534.17 653.48 535.485 654.545 536.595C655.61 537.706 656.888 538.589 658.303 539.193C659.719 539.796 661.241 540.108 662.78 540.108C664.319 540.108 665.841 539.796 667.257 539.193C668.672 538.589 669.95 537.706 671.015 536.595C672.08 535.485 672.909 534.17 673.453 532.731C673.997 531.292 674.244 529.757 674.18 528.22C674.18 526.494 673.809 524.789 673.09 523.22C674.496 520.84 675.232 518.124 675.22 515.36V515.36Z" fill="#F86D70"/>
<path opacity="0.1" d="M611.35 490.93C612.28 487.48 617.35 485.84 623 487.1C623.657 482.958 625.757 479.182 628.927 476.437C632.098 473.693 636.137 472.157 640.33 472.1C640.72 472.1 641.11 472.1 641.49 472.1C639.869 471.606 638.184 471.356 636.49 471.36C632.297 471.417 628.258 472.953 625.087 475.697C621.917 478.442 619.817 482.218 619.16 486.36C613.56 485.1 608.44 486.74 607.51 490.19C606.51 493.8 610.51 498.02 616.43 499.62C617.531 499.925 618.66 500.12 619.8 500.2C614.18 498.56 610.4 494.46 611.35 490.93Z" fill="black"/>
<path opacity="0.1" d="M655.18 528.92C655.18 528.48 655.18 528.05 655.25 527.62C653.476 526.094 652.085 524.172 651.19 522.01C647.955 521.188 645.011 519.483 642.689 517.085C640.367 514.687 638.757 511.69 638.04 508.43C635.618 508.091 633.293 507.249 631.216 505.957C629.139 504.665 627.355 502.953 625.98 500.93C624.86 501.019 623.734 500.988 622.62 500.84C624.003 502.703 625.742 504.273 627.737 505.458C629.732 506.642 631.942 507.418 634.24 507.74C634.951 511.002 636.559 514 638.882 516.398C641.206 518.795 644.152 520.497 647.39 521.31C648.286 523.475 649.676 525.399 651.45 526.93C651.45 527.35 651.38 527.78 651.38 528.22C651.329 531.286 652.493 534.247 654.617 536.458C656.742 538.669 659.655 539.949 662.72 540.02C660.483 539.157 658.562 537.632 657.215 535.648C655.868 533.665 655.158 531.318 655.18 528.92Z" fill="black"/>
<path d="M635.783 510.785C636.697 510.09 636.689 508.539 635.764 507.321C634.838 506.102 633.346 505.678 632.432 506.373C631.517 507.068 631.526 508.619 632.451 509.837C633.376 511.055 634.868 511.479 635.783 510.785Z" fill="#FBBEBE"/>
<path d="M313.8 578.21L327.12 570.38C325.32 567.303 323.018 564.548 320.31 562.23L295.19 570.04L314.87 558.47C309.997 555.801 304.513 554.447 298.957 554.542C293.402 554.636 287.967 556.175 283.187 559.008C278.407 561.84 274.447 565.868 271.696 570.696C268.946 575.523 267.499 580.984 267.5 586.54C267.5 604.21 281.83 604.82 299.5 604.82C317.17 604.82 331.5 604.21 331.5 586.54C331.511 582.061 330.573 577.631 328.75 573.54L313.8 578.21Z" fill="#89A525"/>
<path opacity="0.1" d="M317.19 595.39C315.771 593.968 314.187 592.723 312.47 591.68C310.06 590.07 307.55 588.43 304.7 587.89C302.2 587.41 299.62 587.82 297.07 587.67C292.642 587.4 288.474 585.489 285.38 582.31C283.56 580.43 282.13 578.12 279.94 576.68C277.492 575.226 274.604 574.697 271.8 575.19C270.987 575.303 270.182 575.467 269.39 575.68C268.137 579.163 267.497 582.838 267.5 586.54C267.5 604.21 281.83 604.82 299.5 604.82C308.08 604.82 315.86 604.68 321.61 602.51L320.61 600.72C319.702 598.805 318.552 597.014 317.19 595.39Z" fill="black"/>
</g>
<defs>
<linearGradient id="paint0_linear" x1="567.5" y1="628.64" x2="567.5" y2="469" gradientUnits="userSpaceOnUse">
<stop stop-color="#808080" stop-opacity="0.25"/>
<stop offset="0.54" stop-color="#808080" stop-opacity="0.12"/>
<stop offset="1" stop-color="#808080" stop-opacity="0.1"/>
</linearGradient>
<clipPath id="clip0">
<rect width="1143" height="653" fill="white"/>
</clipPath>
</defs>
</svg>
