<svg width="1143" height="653" viewBox="0 0 1143 653" fill="none" xmlns="http://www.w3.org/2000/svg">
<path d="M913.993 501.033C902.738 534.757 887.112 568.078 865.782 599.308C865.31 600.012 864.83 600.7 864.346 601.401L800.391 581.374C800.668 580.698 800.97 579.941 801.292 579.114C820.578 530.349 936.587 233.122 922.826 171.772C924.127 176.807 966.681 343.394 913.993 501.033Z" fill="#E6E6E6"/>
<path d="M878.121 603.171C877.353 603.783 876.562 604.387 875.764 604.976L827.786 589.952C828.348 589.404 829.002 588.757 829.756 588.027C842.066 575.889 878.631 539.527 913.994 501.033C951.997 459.668 988.62 415.849 992.297 396.99C991.617 401.29 970.102 532.129 878.121 603.171Z" fill="#E6E6E6"/>
<path d="M884.041 154.635H880.542V56.6877C880.542 41.6532 874.697 27.2344 864.295 16.6034C853.892 5.97243 839.783 0 825.072 0H622.014C607.302 0 593.193 5.97243 582.791 16.6034C572.388 27.2344 566.544 41.6532 566.544 56.6877V594.035C566.544 609.069 572.388 623.488 582.791 634.119C593.193 644.75 607.302 650.722 622.014 650.722H825.071C839.782 650.722 853.891 644.75 864.294 634.119C874.697 623.488 880.541 609.069 880.541 594.035V224.355H884.04L884.041 154.635Z" fill="#3F3D56"/>
<path d="M827.31 14.7468H800.804C802.023 17.8011 802.489 21.115 802.16 24.3965C801.831 27.6781 800.717 30.8265 798.917 33.5645C797.116 36.3025 794.685 38.5458 791.836 40.097C788.987 41.6482 785.809 42.4595 782.581 42.4594H666.252C663.025 42.4591 659.847 41.6477 656.999 40.0966C654.15 38.5455 651.719 36.3024 649.919 33.5648C648.119 30.8273 647.005 27.6793 646.676 24.3982C646.346 21.1171 646.812 17.8035 648.03 14.7495H623.27C612.283 14.7495 601.747 19.2098 593.978 27.1492C586.209 35.0886 581.844 45.8567 581.844 57.0846V57.0846V593.64C581.844 604.868 586.209 615.637 593.978 623.576C601.747 631.515 612.283 635.976 623.27 635.976H827.302C838.288 635.976 848.825 631.515 856.594 623.576C864.363 615.637 868.727 604.868 868.727 593.64V593.64V57.082C868.727 45.854 864.363 35.0859 856.594 27.1465C848.825 19.2071 838.288 14.7468 827.302 14.7468V14.7468L827.31 14.7468Z" fill="white"/>
<path d="M748.094 568.582C750.107 555.908 741.685 543.967 729.284 541.911C716.883 539.854 705.198 548.461 703.186 561.134C701.174 573.808 709.595 585.749 721.996 587.805C734.398 589.862 746.082 581.255 748.094 568.582Z" fill="#E6E6E6"/>
<path d="M851.052 295.473H599.52V346.225H851.052V295.473Z" fill="#E6E6E6"/>
<path d="M604.882 340.746H845.691V300.957H604.882V340.746Z" fill="white"/>
<path d="M625.962 305.361C628.896 305.361 631.764 306.25 634.204 307.916C636.643 309.581 638.545 311.949 639.668 314.719C640.79 317.489 641.084 320.537 640.512 323.478C639.939 326.419 638.527 329.12 636.452 331.24C634.377 333.36 631.734 334.804 628.856 335.389C625.979 335.974 622.996 335.674 620.286 334.526C617.575 333.379 615.258 331.436 613.628 328.943C611.998 326.45 611.128 323.519 611.128 320.521C611.128 318.53 611.512 316.558 612.257 314.719C613.003 312.88 614.096 311.209 615.473 309.801C616.851 308.393 618.486 307.276 620.286 306.515C622.085 305.753 624.014 305.361 625.962 305.361Z" fill="#89A525"/>
<path d="M807.84 314.588H661.435V317.884H807.84V314.588Z" fill="#E6E6E6"/>
<path d="M807.84 323.156H661.435V326.452H807.84V323.156Z" fill="#E6E6E6"/>
<path d="M851.052 367.898H599.52V418.649H851.052V367.898Z" fill="#E6E6E6"/>
<path d="M604.882 413.17H845.691V373.381H604.882V413.17Z" fill="white"/>
<path d="M625.962 408.105C634.155 408.105 640.797 401.317 640.797 392.945C640.797 384.572 634.155 377.785 625.962 377.785C617.77 377.785 611.128 384.572 611.128 392.945C611.128 401.317 617.77 408.105 625.962 408.105Z" fill="#89A525"/>
<path d="M807.84 387.012H661.435V390.308H807.84V387.012Z" fill="#E6E6E6"/>
<path d="M807.84 395.581H661.435V398.876H807.84V395.581Z" fill="#E6E6E6"/>
<path d="M851.052 440.322H599.52V491.073H851.052V440.322Z" fill="#E6E6E6"/>
<path d="M604.882 485.594H845.691V445.806H604.882V485.594Z" fill="white"/>
<path d="M625.962 480.529C634.155 480.529 640.797 473.742 640.797 465.369C640.797 456.997 634.155 450.209 625.962 450.209C617.77 450.209 611.128 456.997 611.128 465.369C611.128 473.742 617.77 480.529 625.962 480.529Z" fill="#89A525"/>
<path d="M807.84 459.437H661.435V462.732H807.84V459.437Z" fill="#E6E6E6"/>
<path d="M807.84 468.005H661.435V471.301H807.84V468.005Z" fill="#E6E6E6"/>
<path d="M725.286 244.917C763.942 244.917 795.28 212.892 795.28 173.387C795.28 133.882 763.942 101.857 725.286 101.857C686.629 101.857 655.292 133.882 655.292 173.387C655.292 212.892 686.629 244.917 725.286 244.917Z" fill="#89A525"/>
<path d="M759.408 150.681V196.094C759.408 196.52 759.326 196.942 759.166 197.335C759.007 197.729 758.773 198.087 758.478 198.388C758.184 198.689 757.834 198.928 757.449 199.091C757.063 199.254 756.651 199.338 756.234 199.338H694.338C693.921 199.338 693.509 199.254 693.123 199.091C692.738 198.928 692.388 198.689 692.093 198.388C691.799 198.087 691.565 197.729 691.405 197.335C691.246 196.942 691.164 196.52 691.164 196.094V150.681C691.162 150.31 691.227 149.941 691.355 149.594C691.544 149.04 691.879 148.549 692.323 148.176C692.766 147.803 693.301 147.561 693.87 147.477C694.025 147.451 694.181 147.438 694.338 147.437H756.234C756.391 147.438 756.547 147.451 756.702 147.477C757.27 147.561 757.806 147.803 758.249 148.176C758.693 148.549 759.028 149.04 759.217 149.594C759.345 149.941 759.41 150.31 759.408 150.681V150.681Z" fill="white"/>
<path d="M759.217 149.594L726.23 174.685C725.958 174.895 725.627 175.009 725.286 175.009C724.945 175.009 724.613 174.895 724.341 174.685L691.354 149.594C691.544 149.04 691.879 148.549 692.323 148.176C692.766 147.803 693.301 147.561 693.87 147.477L725.286 171.368L756.702 147.477C757.27 147.561 757.805 147.803 758.249 148.176C758.693 148.549 759.027 149.04 759.217 149.594V149.594Z" fill="#89A525"/>
<path d="M316.476 231.672C316.476 253.853 336.546 250.498 361.304 250.498C386.061 250.498 406.131 253.853 406.131 231.672C406.131 209.49 396.327 170.171 361.304 170.171C325.073 170.171 316.476 209.49 316.476 231.672Z" fill="#2F2E41"/>
<path d="M456.852 636.865L471.183 632.144L460.185 573.409L439.034 580.377L456.852 636.865Z" fill="#C69250"/>
<path d="M451.688 633.288L479.911 623.991L479.912 623.991C482.274 623.213 484.762 622.918 487.236 623.123C489.709 623.328 492.119 624.028 494.327 625.185C496.536 626.342 498.5 627.932 500.107 629.864C501.714 631.796 502.933 634.033 503.694 636.447L503.883 637.044L457.675 652.266L451.688 633.288Z" fill="#294442"/>
<path d="M280.941 637.35L295.998 637.349L303.161 577.998L280.938 577.999L280.941 637.35Z" fill="#C69250"/>
<path d="M277.101 632.326L306.753 632.325H306.754C309.236 632.325 311.693 632.824 313.986 633.795C316.278 634.765 318.362 636.188 320.116 637.981C321.871 639.774 323.263 641.903 324.213 644.246C325.162 646.589 325.651 649.1 325.651 651.636V652.264L277.102 652.266L277.101 632.326Z" fill="#294442"/>
<path d="M261.503 408.514C260.312 407.039 259.425 405.333 258.895 403.499C258.366 401.665 258.204 399.74 258.421 397.84C258.638 395.941 259.228 394.106 260.156 392.445C261.084 390.784 262.331 389.332 263.822 388.177C264.369 387.756 264.946 387.379 265.55 387.049L314.665 269C315.144 267.581 315.893 266.274 316.87 265.153C317.847 264.032 319.031 263.12 320.354 262.469C321.678 261.819 323.114 261.443 324.581 261.363C326.047 261.283 327.514 261.5 328.898 262.003C330.282 262.506 331.554 263.284 332.642 264.292C333.73 265.3 334.612 266.519 335.236 267.877C335.86 269.236 336.215 270.707 336.28 272.206C336.345 273.706 336.118 275.203 335.614 276.613L285.036 394.066C286.306 397.206 286.432 400.707 285.39 403.934C284.348 407.16 282.207 409.897 279.357 411.647C276.508 413.396 273.138 414.042 269.861 413.468C266.584 412.893 263.618 411.135 261.503 408.514Z" fill="#C69250"/>
<path d="M443.12 420.358C440.297 418.603 438.184 415.871 437.165 412.658C436.147 409.445 436.291 405.965 437.571 402.852L386.978 285.359C386.48 283.951 386.258 282.457 386.327 280.961C386.395 279.465 386.752 277.998 387.378 276.644C388.003 275.29 388.884 274.075 389.97 273.07C391.056 272.065 392.326 271.29 393.707 270.788C395.087 270.286 396.551 270.068 398.014 270.147C399.477 270.225 400.911 270.598 402.233 271.245C403.554 271.892 404.738 272.799 405.715 273.914C406.692 275.03 407.444 276.332 407.927 277.745L457.057 395.835C457.661 396.165 458.239 396.542 458.786 396.962C460.277 398.118 461.523 399.57 462.452 401.231C463.38 402.891 463.97 404.727 464.186 406.626C464.403 408.526 464.241 410.45 463.712 412.285C463.182 414.119 462.295 415.825 461.105 417.3C459.798 418.917 458.157 420.217 456.3 421.109C454.444 422.001 452.417 422.461 450.365 422.458C447.806 422.462 445.296 421.735 443.12 420.358V420.358Z" fill="#C69250"/>
<path d="M375.922 246.683C390.54 238.517 395.913 219.787 387.922 204.848C379.931 189.909 361.603 184.419 346.985 192.585C332.367 200.752 326.995 219.482 334.986 234.421C342.976 249.36 361.304 254.85 375.922 246.683Z" fill="#C69250"/>
<path d="M318.97 350.757L312.987 279.737C312.734 276.732 313.142 273.707 314.181 270.884C315.22 268.061 316.864 265.511 318.992 263.421C321.121 261.332 323.68 259.755 326.481 258.807C329.283 257.859 332.257 257.563 335.185 257.942L390.775 265.133C395.866 265.78 400.51 268.427 403.725 272.513C406.939 276.599 408.471 281.804 407.995 287.024C405.788 312.401 399.628 356.952 383.177 370.226L382.926 370.428L318.97 350.757Z" fill="#294442"/>
<path d="M302.739 601.436L279.677 598.642C278.317 598.497 277.058 597.839 276.146 596.798C275.235 595.756 274.735 594.405 274.744 593.008C274.795 581.667 274.766 570.051 274.739 558.818C274.503 462.578 274.281 371.676 318.635 346.592L318.875 346.458L383.386 369.278L385.856 413.447L438.226 489.268C442.557 495.532 445.818 502.502 447.87 509.88L467.329 579.734C467.534 580.47 467.59 581.242 467.494 582.001C467.399 582.761 467.153 583.492 466.772 584.152C466.391 584.811 465.883 585.385 465.278 585.837C464.674 586.289 463.986 586.612 463.255 586.784L440.574 592.133C439.267 592.44 437.895 592.251 436.714 591.602C435.532 590.952 434.622 589.887 434.153 588.603L403.761 511.275L342.006 443.271C341.772 443.024 341.478 442.847 341.153 442.759C340.828 442.671 340.486 442.675 340.164 442.771C339.841 442.867 339.551 443.052 339.323 443.304C339.096 443.557 338.941 443.869 338.874 444.205L308.752 596.938C308.483 598.32 307.716 599.55 306.602 600.382C305.489 601.215 304.11 601.591 302.739 601.436Z" fill="#294442"/>
<path d="M396.306 216.61H384.375L379.112 201.549L378.059 216.61H372.357L369.287 207.825L368.672 216.61H326.301C326.301 212.325 327.127 208.082 328.732 204.122C330.337 200.163 332.689 196.566 335.654 193.535C338.619 190.505 342.139 188.102 346.013 186.462C349.888 184.822 354.04 183.978 358.233 183.978H364.374C368.567 183.978 372.72 184.822 376.594 186.462C380.468 188.102 383.988 190.505 386.953 193.535C389.918 196.566 392.27 200.163 393.875 204.122C395.48 208.082 396.306 212.325 396.306 216.61V216.61Z" fill="#2F2E41"/>
<path d="M981.807 653H126.135C125.903 653 125.681 652.906 125.517 652.738C125.352 652.57 125.26 652.343 125.26 652.106C125.26 651.869 125.352 651.641 125.517 651.474C125.681 651.306 125.903 651.212 126.135 651.212H981.807C982.039 651.212 982.262 651.306 982.426 651.474C982.59 651.641 982.682 651.869 982.682 652.106C982.682 652.343 982.59 652.57 982.426 652.738C982.262 652.906 982.039 653 981.807 653Z" fill="#CACACA"/>
</svg>
