<svg width="410" height="307" viewBox="0 0 410 307" fill="none" xmlns="http://www.w3.org/2000/svg">
<g clip-path="url(#clip0)">
<g opacity="0.1">
<path opacity="0.1" d="M301.445 288.292C305.821 288.292 309.369 283.641 309.369 277.903C309.369 272.165 305.821 267.514 301.445 267.514C297.069 267.514 293.521 272.165 293.521 277.903C293.521 283.641 297.069 288.292 301.445 288.292Z" fill="#3F3D56"/>
<path opacity="0.1" d="M307.715 233.458C308.825 231.528 309.401 229.336 309.383 227.108C309.383 221.359 305.836 216.719 301.459 216.719C297.083 216.719 293.539 221.369 293.539 227.108C293.517 229.334 294.088 231.526 295.193 233.458C294.109 235.397 293.539 237.583 293.539 239.806C293.539 242.029 294.109 244.215 295.193 246.154C294.109 248.094 293.539 250.28 293.539 252.504C293.539 254.727 294.109 256.913 295.193 258.853C294.088 260.785 293.517 262.977 293.539 265.203C293.539 270.953 297.087 275.592 301.459 275.592C305.832 275.592 309.383 270.942 309.383 265.203C309.405 262.977 308.835 260.785 307.73 258.853C308.814 256.913 309.383 254.727 309.383 252.504C309.383 250.28 308.814 248.094 307.73 246.154C308.814 244.215 309.383 242.029 309.383 239.806C309.383 237.583 308.814 235.397 307.73 233.458H307.715Z" fill="#3F3D56"/>
<path opacity="0.1" d="M301.445 224.801C305.821 224.801 309.369 220.15 309.369 214.412C309.369 208.675 305.821 204.023 301.445 204.023C297.069 204.023 293.521 208.675 293.521 214.412C293.521 220.15 297.069 224.801 301.445 224.801Z" fill="#3F3D56"/>
<path opacity="0.1" d="M301.445 212.102C305.821 212.102 309.369 207.45 309.369 201.713C309.369 195.975 305.821 191.324 301.445 191.324C297.069 191.324 293.521 195.975 293.521 201.713C293.521 207.45 297.069 212.102 301.445 212.102Z" fill="#3F3D56"/>
<path opacity="0.1" d="M331.103 114.814C332.184 113.433 333.169 111.979 334.051 110.462L313.246 107.037L335.762 107.206C337.92 102.498 339.097 97.3989 339.22 92.2198C339.344 87.0407 338.411 81.8909 336.48 77.0852L306.27 92.7746L334.134 72.2699C331.523 67.7553 328.012 63.8275 323.82 60.7309C319.628 57.6344 314.844 55.4354 309.767 54.2708C304.691 53.1063 299.429 53.0011 294.309 53.9618C289.19 54.9225 284.323 56.9286 280.011 59.8552C275.699 62.7817 272.035 66.5661 269.246 70.9727C266.457 75.3794 264.603 80.3139 263.8 85.4693C262.997 90.6246 263.262 95.8904 264.578 100.939C265.894 105.987 268.233 110.71 271.45 114.814C269.764 116.962 268.314 119.286 267.124 121.746L294.145 135.811L265.334 126.108C263.307 132.097 262.803 138.498 263.868 144.732C264.932 150.965 267.532 156.834 271.432 161.806C267.029 167.414 264.291 174.149 263.529 181.243C262.767 188.336 264.013 195.501 267.124 201.919C270.236 208.336 275.087 213.747 281.123 217.532C287.159 221.318 294.137 223.325 301.258 223.325C308.38 223.325 315.358 221.318 321.394 217.532C327.43 213.747 332.281 208.336 335.393 201.919C338.504 195.501 339.75 188.336 338.988 181.243C338.226 174.149 335.488 167.414 331.085 161.806C336.346 155.106 339.206 146.828 339.206 138.303C339.206 129.778 336.346 121.5 331.085 114.799L331.103 114.814Z" fill="#1FFFDA"/>
<path opacity="0.1" d="M263.329 138.319C263.316 146.846 266.178 155.127 271.45 161.821C267.047 167.429 264.309 174.164 263.547 181.257C262.785 188.351 264.031 195.516 267.142 201.933C270.254 208.351 275.105 213.761 281.141 217.547C287.177 221.332 294.155 223.34 301.277 223.34C308.398 223.34 315.376 221.332 321.412 217.547C327.448 213.761 332.299 208.351 335.411 201.933C338.522 195.516 339.768 188.351 339.006 181.257C338.244 174.164 335.506 167.429 331.103 161.821C336.189 155.353 263.329 134.05 263.329 138.319Z" fill="black"/>
</g>
<g opacity="0.1">
<path opacity="0.1" d="M79.2058 277.181C81.8683 277.181 84.0268 274.349 84.0268 270.856C84.0268 267.363 81.8683 264.531 79.2058 264.531C76.5432 264.531 74.3848 267.363 74.3848 270.856C74.3848 274.349 76.5432 277.181 79.2058 277.181Z" fill="#3F3D56"/>
<path opacity="0.1" d="M83.0399 243.8C83.7129 242.624 84.0608 241.289 84.0479 239.934C84.0479 236.441 81.8956 233.609 79.2233 233.609C76.5509 233.609 74.4023 236.441 74.4023 239.934C74.3883 241.289 74.735 242.624 75.4067 243.8C74.7482 244.982 74.4025 246.312 74.4025 247.665C74.4025 249.018 74.7482 250.349 75.4067 251.53C74.7482 252.711 74.4025 254.042 74.4025 255.395C74.4025 256.748 74.7482 258.078 75.4067 259.26C74.7344 260.435 74.3877 261.769 74.4023 263.123C74.4023 266.619 76.5545 269.451 79.2233 269.451C81.8921 269.451 84.0479 266.619 84.0479 263.123C84.0614 261.768 83.7134 260.435 83.0399 259.26C83.7004 258.079 84.0472 256.748 84.0472 255.395C84.0472 254.042 83.7004 252.711 83.0399 251.53C83.7004 250.349 84.0472 249.019 84.0472 247.665C84.0472 246.312 83.7004 244.981 83.0399 243.8V243.8Z" fill="#3F3D56"/>
<path opacity="0.1" d="M79.2058 238.529C81.8683 238.529 84.0268 235.697 84.0268 232.204C84.0268 228.711 81.8683 225.879 79.2058 225.879C76.5432 225.879 74.3848 228.711 74.3848 232.204C74.3848 235.697 76.5432 238.529 79.2058 238.529Z" fill="#3F3D56"/>
<path opacity="0.1" d="M79.2058 230.799C81.8683 230.799 84.0268 227.967 84.0268 224.474C84.0268 220.981 81.8683 218.15 79.2058 218.15C76.5432 218.15 74.3848 220.981 74.3848 224.474C74.3848 227.967 76.5432 230.799 79.2058 230.799Z" fill="#3F3D56"/>
<path opacity="0.1" d="M61.159 171.57C60.5006 170.73 59.9013 169.845 59.3655 168.922L72.0385 166.838L58.3324 166.942C57.0202 164.077 56.3044 160.975 56.2285 157.824C56.1527 154.673 56.7184 151.539 57.8912 148.615L76.2677 158.177L59.3117 145.672C60.902 142.925 63.0395 140.536 65.5912 138.652C68.1428 136.769 71.054 135.432 74.1437 134.724C77.2333 134.016 80.4353 133.953 83.5505 134.538C86.6656 135.123 89.6272 136.344 92.2511 138.125C94.875 139.906 97.105 142.209 98.8023 144.89C100.5 147.572 101.628 150.574 102.117 153.712C102.607 156.849 102.446 160.053 101.646 163.125C100.846 166.198 99.4237 169.072 97.4672 171.57C98.4935 172.876 99.3763 174.29 100.1 175.785L83.6498 184.352L101.191 178.455C102.422 182.103 102.727 186 102.077 189.795C101.427 193.59 99.8424 197.162 97.4672 200.189C100.147 203.603 101.814 207.703 102.278 212.021C102.741 216.339 101.983 220.701 100.088 224.607C98.1944 228.514 95.2412 231.807 91.5667 234.112C87.8922 236.416 83.6446 237.638 79.3095 237.638C74.9744 237.638 70.7268 236.416 67.0523 234.112C63.3777 231.807 60.4246 228.514 58.5305 224.607C56.6364 220.701 55.8778 216.339 56.3413 212.021C56.8049 207.703 58.4719 203.603 61.1518 200.189C57.9495 196.109 56.2085 191.07 56.2085 185.88C56.2085 180.69 57.9495 175.65 61.1518 171.57H61.159Z" fill="#1FFFDA"/>
<path opacity="0.1" d="M102.41 185.88C102.418 191.071 100.676 196.113 97.4673 200.189C100.147 203.603 101.814 207.703 102.278 212.021C102.741 216.339 101.983 220.701 100.089 224.607C98.1945 228.514 95.2413 231.807 91.5668 234.112C87.8923 236.416 83.6447 237.638 79.3096 237.638C74.9745 237.638 70.7269 236.416 67.0524 234.112C63.3779 231.807 60.4247 228.514 58.5306 224.607C56.6365 220.701 55.8779 216.339 56.3414 212.021C56.805 207.703 58.472 203.603 61.152 200.189C58.0563 196.268 102.41 183.281 102.41 185.88Z" fill="black"/>
</g>
<g opacity="0.1">
<path opacity="0.1" d="M187.894 282.686C191.457 282.686 194.347 278.897 194.347 274.223C194.347 269.549 191.457 265.76 187.894 265.76C184.33 265.76 181.44 269.549 181.44 274.223C181.44 278.897 184.33 282.686 187.894 282.686Z" fill="#3F3D56"/>
<path opacity="0.1" d="M193.001 238.015C193.901 236.44 194.365 234.654 194.347 232.84C194.347 228.168 191.477 224.377 187.89 224.377C184.303 224.377 181.433 228.168 181.433 232.84C181.414 234.655 181.88 236.441 182.782 238.015C181.898 239.595 181.433 241.376 181.433 243.188C181.433 244.999 181.898 246.78 182.782 248.361C181.898 249.94 181.433 251.721 181.433 253.532C181.433 255.343 181.898 257.123 182.782 258.703C181.88 260.276 181.414 262.063 181.433 263.877C181.433 268.549 184.324 272.34 187.89 272.34C191.455 272.34 194.347 268.549 194.347 263.877C194.365 262.063 193.901 260.277 193.001 258.703C193.884 257.122 194.347 255.342 194.347 253.532C194.347 251.721 193.884 249.941 193.001 248.361C193.884 246.78 194.347 244.999 194.347 243.188C194.347 241.376 193.884 239.596 193.001 238.015V238.015Z" fill="#3F3D56"/>
<path opacity="0.1" d="M187.894 230.96C191.457 230.96 194.347 227.172 194.347 222.498C194.347 217.824 191.457 214.035 187.894 214.035C184.33 214.035 181.44 217.824 181.44 222.498C181.44 227.172 184.33 230.96 187.894 230.96Z" fill="#3F3D56"/>
<path opacity="0.1" d="M187.894 220.615C191.457 220.615 194.347 216.826 194.347 212.152C194.347 207.478 191.457 203.689 187.894 203.689C184.33 203.689 181.44 207.478 181.44 212.152C181.44 216.826 184.33 220.615 187.894 220.615Z" fill="#3F3D56"/>
<path opacity="0.1" d="M163.749 141.359C162.867 140.235 162.064 139.051 161.346 137.816L178.302 135.027L159.965 135.164C158.205 131.329 157.245 127.174 157.143 122.955C157.042 118.735 157.8 114.539 159.373 110.624L183.98 123.409L161.285 106.7C163.405 103.008 166.263 99.7944 169.679 97.2593C173.095 94.7242 176.996 92.9221 181.139 91.9657C185.281 91.0092 189.576 90.919 193.756 91.7006C197.935 92.4822 201.908 94.1189 205.427 96.5083C208.946 98.8977 211.936 101.989 214.209 105.588C216.482 109.187 217.989 113.217 218.637 117.426C219.285 121.635 219.06 125.933 217.975 130.051C216.89 134.169 214.969 138.019 212.332 141.359C213.705 143.11 214.886 145.004 215.855 147.008L193.844 158.464L217.315 150.559C218.963 155.439 219.371 160.654 218.501 165.732C217.631 170.81 215.511 175.591 212.332 179.641C215.918 184.209 218.149 189.696 218.769 195.475C219.39 201.253 218.374 207.09 215.84 212.317C213.305 217.545 209.353 221.952 204.436 225.036C199.519 228.12 193.835 229.755 188.033 229.755C182.232 229.755 176.548 228.12 171.631 225.036C166.714 221.952 162.762 217.545 160.227 212.317C157.692 207.09 156.677 201.253 157.297 195.475C157.918 189.696 160.148 184.209 163.735 179.641C159.45 174.182 157.12 167.438 157.12 160.493C157.12 153.548 159.45 146.804 163.735 141.345L163.749 141.359Z" fill="#1FFFDA"/>
<path opacity="0.1" d="M218.947 160.509C218.957 167.455 216.627 174.202 212.332 179.656C215.918 184.224 218.149 189.711 218.769 195.489C219.39 201.267 218.374 207.104 215.84 212.332C213.305 217.559 209.353 221.967 204.436 225.05C199.519 228.134 193.835 229.769 188.033 229.769C182.232 229.769 176.548 228.134 171.631 225.05C166.714 221.967 162.762 217.559 160.227 212.332C157.692 207.104 156.677 201.267 157.297 195.489C157.918 189.711 160.148 184.224 163.735 179.656C159.592 174.387 218.947 157.031 218.947 160.509Z" fill="black"/>
</g>
<path d="M410 281.924C410 284.393 391.986 286.65 362.203 288.393C356.786 288.705 350.982 289.003 344.827 289.284C339.509 289.523 333.934 289.75 328.104 289.963C322.456 290.164 316.591 290.351 310.51 290.523C291.305 291.073 270.073 291.469 247.517 291.666C242.044 291.717 236.497 291.755 230.877 291.781C225.023 291.808 219.102 291.82 213.114 291.817C104.376 291.817 16.2314 287.394 16.2314 281.935C16.2314 276.476 104.376 272.053 213.114 272.053C259.929 272.053 302.919 272.876 336.709 274.241L340.404 274.392H340.426C382.99 276.2 410 278.92 410 281.924Z" fill="#3F3D56"/>
<path opacity="0.15" d="M410 281.924C410 284.393 391.986 286.65 362.203 288.393C356.786 288.705 350.982 289.003 344.827 289.284C339.509 289.523 333.934 289.75 328.104 289.963C322.456 290.164 316.591 290.351 310.51 290.523C291.305 291.073 270.073 291.469 247.517 291.666C242.044 291.717 236.497 291.755 230.877 291.781C225.023 291.808 219.102 291.82 213.114 291.817C104.376 291.817 16.2314 287.394 16.2314 281.935C16.2314 276.476 104.376 272.053 213.114 272.053C259.929 272.053 302.919 272.876 336.709 274.241L340.404 274.392H340.426C382.99 276.2 410 278.92 410 281.924Z" fill="black"/>
<path d="M393.769 280.185C393.769 282.248 375.754 284.138 345.971 285.575C340.558 285.838 334.751 286.086 328.599 286.319C323.278 286.521 317.704 286.71 311.876 286.887C306.228 287.055 300.363 287.212 294.282 287.358C275.073 287.818 253.841 288.148 231.286 288.314C225.817 288.354 220.27 288.386 214.646 288.407C208.792 288.429 202.872 288.439 196.886 288.439C88.1482 288.439 0 284.742 0 280.174C0 275.607 88.1482 271.909 196.886 271.909C243.697 271.909 286.688 272.596 320.478 273.738L324.173 273.864H324.198C366.776 275.399 393.769 277.659 393.769 280.185Z" fill="#3F3D56"/>
<path d="M50.8502 205.105L45.9072 189.944L164.28 188.647L169.13 203.657L50.8502 205.105Z" fill="#3F3D56"/>
<path opacity="0.15" d="M50.8502 205.105L45.9072 189.944L164.28 188.647L169.13 203.657L50.8502 205.105Z" fill="black"/>
<path d="M42.9586 205.105L38.0156 189.944L156.388 188.647L161.238 203.657L42.9586 205.105Z" fill="#3F3D56"/>
<path d="M245.035 181.808C232.796 181.808 223.15 176.941 216.098 167.208C209.046 157.474 205.52 145.682 205.52 131.833C205.52 117.89 208.93 106.122 215.75 96.5299C222.57 86.9376 232.191 82.1462 244.612 82.1558C257.783 82.1558 267.708 87.2095 274.384 97.3169C281.061 107.424 284.4 119.123 284.403 132.411C284.403 145.605 280.947 157.137 274.036 167.01C267.125 176.883 257.458 181.815 245.035 181.808ZM245.394 170.859C253.445 170.859 259.463 167.343 263.447 160.312C267.431 153.28 269.423 144.416 269.423 133.719C269.423 121.813 267.385 112.064 263.307 104.472C259.23 96.8797 252.977 93.0825 244.547 93.0801C228.525 93.0801 220.514 105.83 220.514 131.33C220.514 157.685 228.805 170.861 245.387 170.859H245.394ZM249.426 275.715H231.723L347.614 84.1071H364.982L249.426 275.715ZM351.951 277.68C339.527 277.68 329.842 272.769 322.895 262.947C315.949 253.124 312.461 241.332 312.432 227.568C312.432 213.719 315.818 201.998 322.591 192.406C329.363 182.813 339.007 178.022 351.524 178.031C364.602 178.031 374.457 183.085 381.088 193.193C387.719 203.3 391.036 214.997 391.039 228.283C391.039 241.39 387.606 252.902 380.74 262.817C373.875 272.733 364.276 277.687 351.943 277.68H351.951ZM352.159 266.45C360.172 266.45 366.158 262.995 370.115 256.083C374.073 249.172 376.052 240.343 376.052 229.599C376.052 218.099 374.049 208.456 370.044 200.667C366.038 192.879 359.798 188.979 351.323 188.967C335.207 188.967 327.15 201.716 327.15 227.216C327.145 253.375 335.479 266.453 352.151 266.45H352.159Z" fill="#3F3D56"/>
<path d="M245.035 181.808C232.796 181.808 223.15 176.941 216.098 167.208C209.046 157.474 205.52 145.682 205.52 131.833C205.52 117.89 208.93 106.122 215.75 96.5299C222.57 86.9376 232.191 82.1462 244.612 82.1558C257.783 82.1558 267.708 87.2095 274.384 97.3169C281.061 107.424 284.4 119.123 284.403 132.411C284.403 145.605 280.947 157.137 274.036 167.01C267.125 176.883 257.458 181.815 245.035 181.808ZM245.394 170.859C253.445 170.859 259.463 167.343 263.447 160.312C267.431 153.28 269.423 144.416 269.423 133.719C269.423 121.813 267.385 112.064 263.307 104.472C259.23 96.8797 252.977 93.0825 244.547 93.0801C228.525 93.0801 220.514 105.83 220.514 131.33C220.514 157.685 228.805 170.861 245.387 170.859H245.394ZM249.426 275.715H231.723L347.614 84.1071H364.982L249.426 275.715ZM351.951 277.68C339.527 277.68 329.842 272.769 322.895 262.947C315.949 253.124 312.461 241.332 312.432 227.568C312.432 213.719 315.818 201.998 322.591 192.406C329.363 182.813 339.007 178.022 351.524 178.031C364.602 178.031 374.457 183.085 381.088 193.193C387.719 203.3 391.036 214.997 391.039 228.283C391.039 241.39 387.606 252.902 380.74 262.817C373.875 272.733 364.276 277.687 351.943 277.68H351.951ZM352.159 266.45C360.172 266.45 366.158 262.995 370.115 256.083C374.073 249.172 376.052 240.343 376.052 229.599C376.052 218.099 374.049 208.456 370.044 200.667C366.038 192.879 359.798 188.979 351.323 188.967C335.207 188.967 327.15 201.716 327.15 227.216C327.145 253.375 335.479 266.453 352.151 266.45H352.159Z" fill="#3F3D56"/>
<path opacity="0.15" d="M245.035 181.808C232.796 181.808 223.15 176.941 216.098 167.208C209.046 157.474 205.52 145.682 205.52 131.833C205.52 117.89 208.93 106.122 215.75 96.5299C222.57 86.9376 232.191 82.1462 244.612 82.1558C257.783 82.1558 267.708 87.2095 274.384 97.3169C281.061 107.424 284.4 119.123 284.403 132.411C284.403 145.605 280.947 157.137 274.036 167.01C267.125 176.883 257.458 181.815 245.035 181.808ZM245.394 170.859C253.445 170.859 259.463 167.343 263.447 160.312C267.431 153.28 269.423 144.416 269.423 133.719C269.423 121.813 267.385 112.064 263.307 104.472C259.23 96.8797 252.977 93.0825 244.547 93.0801C228.525 93.0801 220.514 105.83 220.514 131.33C220.514 157.685 228.805 170.861 245.387 170.859H245.394ZM249.426 275.715H231.723L347.614 84.1071H364.982L249.426 275.715ZM351.951 277.68C339.527 277.68 329.842 272.769 322.895 262.947C315.949 253.124 312.461 241.332 312.432 227.568C312.432 213.719 315.818 201.998 322.591 192.406C329.363 182.813 339.007 178.022 351.524 178.031C364.602 178.031 374.457 183.085 381.088 193.193C387.719 203.3 391.036 214.997 391.039 228.283C391.039 241.39 387.606 252.902 380.74 262.817C373.875 272.733 364.276 277.687 351.943 277.68H351.951ZM352.159 266.45C360.172 266.45 366.158 262.995 370.115 256.083C374.073 249.172 376.052 240.343 376.052 229.599C376.052 218.099 374.049 208.456 370.044 200.667C366.038 192.879 359.798 188.979 351.323 188.967C335.207 188.967 327.15 201.716 327.15 227.216C327.145 253.375 335.479 266.453 352.151 266.45H352.159Z" fill="black"/>
<path d="M233.915 181.808C221.676 181.808 212.031 176.941 204.979 167.208C197.926 157.474 194.4 145.682 194.4 131.833C194.4 117.89 197.81 106.122 204.631 96.5299C211.451 86.9376 221.071 82.1462 233.492 82.1558C246.664 82.1558 256.588 87.2095 263.265 97.3169C269.941 107.424 273.281 119.123 273.283 132.411C273.283 145.605 269.828 157.137 262.917 167.01C256.006 176.883 246.338 181.815 233.915 181.808ZM234.274 170.859C242.326 170.859 248.344 167.343 252.328 160.312C256.312 153.28 258.304 144.416 258.304 133.719C258.304 121.813 256.265 112.064 252.188 104.472C248.11 96.8797 241.857 93.0825 233.427 93.0801C217.405 93.0801 209.394 105.83 209.394 131.33C209.394 157.685 217.685 170.861 234.267 170.859H234.274ZM238.306 275.715H220.604L336.494 84.1071H353.863L238.306 275.715ZM340.831 277.68C328.408 277.68 318.723 272.769 311.776 262.947C304.829 253.124 301.341 241.332 301.312 227.568C301.312 213.719 304.699 201.998 311.471 192.406C318.243 182.813 327.888 178.022 340.404 178.031C353.482 178.031 363.337 183.085 369.969 193.193C376.6 203.3 379.917 214.997 379.919 228.283C379.919 241.39 376.486 252.902 369.621 262.817C362.755 272.733 353.156 277.687 340.824 277.68H340.831ZM341.039 266.45C349.052 266.45 355.038 262.995 358.996 256.083C362.954 249.172 364.932 240.343 364.932 229.599C364.932 218.099 362.93 208.456 358.924 200.667C354.919 192.879 348.676 188.979 340.196 188.967C324.081 188.967 316.023 201.716 316.023 227.216C316.023 253.375 324.359 266.453 341.032 266.45H341.039Z" fill="#3F3D56"/>
<path d="M272.641 280.523C274.119 277.777 272.44 274.414 270.51 271.963C268.581 269.512 266.227 266.968 266.278 263.845C266.349 259.364 271.099 256.716 274.887 254.337C277.704 252.574 280.302 250.482 282.627 248.105C283.601 247.19 284.406 246.11 285.006 244.914C285.791 243.161 285.766 241.166 285.723 239.247C285.558 232.846 285.242 226.454 284.776 220.072" stroke="#3F3D56" stroke-width="4" stroke-miterlimit="10"/>
<path d="M291.993 219.72C291.939 218.549 291.592 217.411 290.983 216.41C290.375 215.408 289.524 214.577 288.51 213.992L286.946 217.09L286.993 213.338C286.247 213.12 285.47 213.026 284.694 213.061C283.315 213.126 281.986 213.599 280.875 214.42C279.764 215.242 278.922 216.375 278.453 217.676C277.985 218.977 277.913 220.388 278.245 221.73C278.578 223.072 279.3 224.286 280.321 225.217C281.342 226.148 282.615 226.755 283.98 226.961C285.345 227.168 286.741 226.963 287.99 226.375C289.24 225.787 290.287 224.84 290.999 223.656C291.712 222.471 292.058 221.102 291.993 219.72V219.72Z" fill="#1FFFDA"/>
<path d="M279.546 267.061C278.814 268.487 277.614 269.617 276.149 270.262C274.683 270.907 273.041 271.028 271.498 270.604C269.954 270.18 268.603 269.237 267.671 267.933C266.739 266.63 266.282 265.045 266.378 263.444C266.474 261.844 267.116 260.325 268.197 259.143C269.278 257.96 270.732 257.186 272.315 256.95C273.898 256.714 275.514 257.03 276.892 257.846C278.27 258.662 279.326 259.927 279.883 261.43L275.521 264.984L280.328 263.863C280.326 264.977 280.058 266.073 279.546 267.061V267.061Z" fill="#1FFFDA"/>
<path d="M276.099 253.474C275.183 253.517 274.268 253.379 273.406 253.068C272.543 252.756 271.75 252.278 271.073 251.66C270.395 251.041 269.845 250.295 269.455 249.464C269.065 248.633 268.842 247.733 268.8 246.815C268.745 245.72 268.952 244.628 269.402 243.628C269.819 242.694 270.435 241.862 271.208 241.193C271.98 240.523 272.889 240.03 273.872 239.751L273.832 242.625L275.414 239.492C277.263 239.405 279.072 240.058 280.44 241.307C281.809 242.555 282.627 244.298 282.714 246.151C282.8 248.003 282.149 249.815 280.902 251.186C279.656 252.558 277.916 253.377 276.067 253.463L276.099 253.474Z" fill="#1FFFDA"/>
<path d="M293.044 242.18C292.118 242.241 291.188 242.117 290.31 241.815C289.432 241.512 288.623 241.037 287.93 240.418C287.237 239.798 286.675 239.046 286.276 238.206C285.877 237.366 285.649 236.455 285.605 235.526C285.562 234.596 285.704 233.668 286.023 232.794C286.342 231.92 286.832 231.119 287.464 230.438C288.096 229.756 288.857 229.207 289.703 228.824C290.549 228.44 291.463 228.23 292.392 228.204C293.696 228.141 294.992 228.449 296.129 229.092L294.895 232.477L297.435 230.037C298.798 231.282 299.612 233.018 299.698 234.863C299.73 235.511 299.67 236.159 299.519 236.789C299.172 238.271 298.352 239.599 297.183 240.572C296.015 241.544 294.562 242.109 293.044 242.18V242.18Z" fill="#1FFFDA"/>
<path opacity="0.1" d="M291.053 221.585C289.443 221.761 287.879 222.264 286.261 222.365C284.643 222.466 282.868 222.077 281.845 220.816C281.293 220.141 281.02 219.282 280.554 218.541C280.114 217.852 279.51 217.283 278.796 216.885C278.348 217.771 278.094 218.743 278.05 219.736C278.006 220.728 278.174 221.719 278.543 222.641C278.911 223.564 279.471 224.397 280.186 225.086C280.901 225.774 281.755 226.302 282.689 226.635C283.624 226.967 284.619 227.096 285.607 227.013C286.595 226.93 287.555 226.637 288.421 226.153C289.287 225.67 290.041 225.007 290.632 224.208C291.222 223.41 291.636 222.495 291.846 221.524C291.581 221.538 291.319 221.556 291.053 221.585Z" fill="black"/>
<path opacity="0.1" d="M293.044 242.18C291.841 242.235 290.644 241.977 289.57 241.432C288.496 240.888 287.58 240.074 286.912 239.07C286.244 238.067 285.846 236.907 285.757 235.704C285.668 234.501 285.891 233.295 286.404 232.204C286.957 232.58 287.433 233.058 287.807 233.613C288.305 234.364 288.607 235.233 289.191 235.923C290.268 237.206 292.136 237.623 293.819 237.548C295.501 237.472 297.13 236.991 298.808 236.829C299.042 236.807 299.278 236.793 299.526 236.786C299.179 238.269 298.358 239.599 297.188 240.572C296.018 241.546 294.563 242.11 293.044 242.18V242.18Z" fill="black"/>
<path opacity="0.1" d="M276.099 253.474C275.183 253.517 274.268 253.379 273.406 253.068C272.543 252.756 271.75 252.278 271.073 251.659C270.395 251.041 269.845 250.295 269.455 249.464C269.065 248.633 268.842 247.733 268.8 246.815C268.745 245.72 268.952 244.628 269.402 243.628C269.978 244.012 270.478 244.499 270.876 245.065C271.418 245.831 271.759 246.715 272.394 247.423C273.57 248.734 275.55 249.198 277.333 249.155C279.116 249.112 280.726 248.695 282.445 248.562C282.019 249.935 281.181 251.142 280.046 252.021C278.91 252.9 277.532 253.408 276.099 253.474V253.474Z" fill="black"/>
<path opacity="0.1" d="M279.546 267.061C278.734 268.661 277.339 269.886 275.65 270.484C273.961 271.081 272.108 271.006 270.473 270.273C268.838 269.54 267.547 268.205 266.867 266.545C266.187 264.885 266.17 263.027 266.819 261.355C267.394 261.734 267.91 262.195 268.351 262.724C269.014 263.536 269.452 264.456 270.22 265.211C271.654 266.612 273.95 267.191 276.002 267.245C277.186 267.254 278.369 267.193 279.546 267.061V267.061Z" fill="black"/>
<path d="M380.611 280.163C382.089 277.418 380.41 274.054 378.481 271.604C376.551 269.153 374.198 266.609 374.248 263.486C374.32 259.005 379.069 256.356 382.857 253.977C385.674 252.214 388.272 250.123 390.598 247.746C391.571 246.831 392.376 245.75 392.976 244.555C393.761 242.801 393.736 240.807 393.693 238.888C393.528 232.487 393.213 226.095 392.746 219.713" stroke="#3F3D56" stroke-width="4" stroke-miterlimit="10"/>
<path d="M399.963 219.361C399.91 218.19 399.562 217.051 398.953 216.05C398.345 215.049 397.494 214.218 396.48 213.633L394.916 216.73L394.963 212.978C394.217 212.76 393.44 212.667 392.664 212.702C391.285 212.767 389.956 213.24 388.845 214.061C387.734 214.882 386.892 216.015 386.424 217.316C385.956 218.617 385.883 220.028 386.216 221.371C386.548 222.713 387.27 223.927 388.291 224.858C389.312 225.789 390.585 226.396 391.95 226.602C393.315 226.808 394.711 226.604 395.96 226.016C397.21 225.427 398.257 224.481 398.969 223.296C399.682 222.112 400.028 220.742 399.963 219.361V219.361Z" fill="#1FFFDA"/>
<path d="M387.516 266.702C386.784 268.128 385.584 269.258 384.119 269.903C382.654 270.548 381.011 270.668 379.468 270.244C377.924 269.82 376.573 268.877 375.641 267.574C374.709 266.271 374.253 264.686 374.348 263.085C374.444 261.485 375.087 259.966 376.167 258.783C377.248 257.601 378.702 256.826 380.285 256.59C381.869 256.354 383.484 256.671 384.862 257.486C386.24 258.302 387.296 259.568 387.853 261.071L383.492 264.625L388.298 263.504C388.296 264.617 388.028 265.714 387.516 266.702V266.702Z" fill="#1FFFDA"/>
<path d="M384.069 253.115C383.154 253.158 382.238 253.02 381.376 252.708C380.513 252.397 379.721 251.918 379.043 251.3C378.365 250.682 377.815 249.936 377.425 249.105C377.035 248.273 376.813 247.373 376.77 246.456C376.715 245.361 376.922 244.268 377.372 243.269C377.789 242.334 378.406 241.503 379.178 240.833C379.95 240.163 380.859 239.671 381.842 239.391L381.802 242.266L383.384 239.132H383.402C384.318 239.089 385.233 239.228 386.096 239.539C386.958 239.85 387.751 240.329 388.429 240.947C389.107 241.566 389.656 242.312 390.046 243.143C390.436 243.974 390.659 244.874 390.702 245.791C390.745 246.709 390.607 247.626 390.296 248.49C389.985 249.353 389.508 250.148 388.89 250.827C388.273 251.506 387.528 252.056 386.699 252.447C385.869 252.838 384.971 253.061 384.055 253.104L384.069 253.115Z" fill="#1FFFDA"/>
<path d="M401.015 241.82C400.088 241.882 399.158 241.758 398.28 241.455C397.402 241.153 396.593 240.678 395.9 240.058C395.208 239.439 394.645 238.687 394.246 237.847C393.847 237.007 393.619 236.096 393.576 235.166C393.532 234.237 393.674 233.308 393.993 232.435C394.312 231.561 394.802 230.76 395.434 230.078C396.066 229.396 396.827 228.848 397.673 228.464C398.52 228.081 399.434 227.87 400.362 227.845C401.666 227.781 402.962 228.089 404.1 228.733L402.866 232.118L405.405 229.678C406.768 230.922 407.582 232.658 407.669 234.504C407.7 235.151 407.64 235.8 407.489 236.43C407.142 237.912 406.322 239.24 405.154 240.212C403.985 241.185 402.532 241.75 401.015 241.82V241.82Z" fill="#1FFFDA"/>
<path opacity="0.1" d="M399.024 221.226C397.413 221.402 395.849 221.905 394.231 222.006C392.614 222.106 390.838 221.718 389.816 220.457C389.263 219.781 388.991 218.922 388.524 218.182C388.084 217.493 387.48 216.924 386.767 216.525C386.319 217.412 386.064 218.384 386.02 219.376C385.977 220.369 386.145 221.359 386.513 222.282C386.881 223.204 387.442 224.038 388.157 224.726C388.872 225.415 389.725 225.943 390.66 226.275C391.594 226.607 392.589 226.736 393.577 226.653C394.566 226.57 395.525 226.277 396.391 225.794C397.258 225.31 398.011 224.647 398.602 223.849C399.193 223.051 399.607 222.136 399.816 221.165C399.551 221.179 399.289 221.197 399.024 221.226Z" fill="black"/>
<path opacity="0.1" d="M401.014 241.82C399.811 241.875 398.615 241.618 397.54 241.073C396.466 240.528 395.55 239.715 394.882 238.711C394.214 237.707 393.817 236.548 393.728 235.345C393.639 234.142 393.861 232.936 394.375 231.845C394.928 232.22 395.404 232.698 395.777 233.253C396.276 234.004 396.577 234.874 397.162 235.564C398.238 236.847 400.107 237.264 401.789 237.188C403.471 237.113 405.1 236.631 406.779 236.47C407.012 236.448 407.248 236.434 407.496 236.426C407.149 237.91 406.328 239.24 405.159 240.213C403.989 241.187 402.533 241.751 401.014 241.82V241.82Z" fill="black"/>
<path opacity="0.1" d="M384.069 253.115C383.154 253.158 382.238 253.02 381.376 252.708C380.513 252.397 379.721 251.918 379.043 251.3C378.365 250.682 377.815 249.936 377.425 249.105C377.035 248.273 376.813 247.373 376.77 246.456C376.715 245.361 376.922 244.268 377.372 243.269C377.948 243.653 378.448 244.14 378.847 244.706C379.388 245.471 379.729 246.355 380.364 247.063C381.541 248.375 383.521 248.839 385.303 248.795C387.032 248.759 388.697 248.335 390.415 248.202C389.989 249.575 389.151 250.783 388.016 251.662C386.881 252.541 385.503 253.048 384.069 253.115V253.115Z" fill="black"/>
<path opacity="0.1" d="M387.516 266.702C386.704 268.301 385.309 269.527 383.62 270.124C381.932 270.722 380.078 270.647 378.443 269.914C376.808 269.181 375.517 267.846 374.837 266.186C374.157 264.526 374.14 262.668 374.789 260.996C375.364 261.374 375.88 261.836 376.321 262.365C376.985 263.177 377.422 264.097 378.19 264.851C379.625 266.253 381.92 266.832 383.972 266.885C385.156 266.895 386.339 266.834 387.516 266.702V266.702Z" fill="black"/>
<path d="M39.4324 275.492C37.9545 272.746 39.6333 269.383 41.5631 266.932C43.4929 264.481 45.846 261.937 45.7958 258.814C45.7241 254.333 40.9748 251.685 37.1869 249.306C34.3697 247.543 31.7713 245.451 29.446 243.074C28.4723 242.159 27.6673 241.079 27.0678 239.883C26.2823 238.13 26.3074 236.135 26.3504 234.216C26.5154 227.815 26.8311 221.423 27.2974 215.041" stroke="#3F3D56" stroke-width="4" stroke-miterlimit="10"/>
<path d="M20.0804 214.689C20.1343 213.518 20.4817 212.38 21.0904 211.379C21.6991 210.378 22.5496 209.546 23.5634 208.961L25.1273 212.059L25.0807 208.307C25.8267 208.089 26.6036 207.995 27.38 208.03C28.7591 208.095 30.088 208.568 31.1987 209.39C32.3094 210.211 33.1521 211.344 33.6201 212.645C34.0882 213.946 34.1606 215.357 33.8282 216.699C33.4959 218.042 32.7736 219.255 31.7528 220.186C30.7321 221.118 29.4586 221.725 28.0935 221.931C26.7283 222.137 25.3328 221.933 24.0834 221.344C22.8341 220.756 21.7869 219.81 21.0744 218.625C20.3618 217.44 20.0159 216.071 20.0804 214.689V214.689Z" fill="#1FFFDA"/>
<path d="M32.5276 262.03C33.26 263.456 34.4595 264.586 35.9248 265.231C37.3902 265.876 39.0323 265.997 40.5759 265.573C42.1195 265.149 43.4706 264.206 44.4027 262.902C45.3348 261.599 45.7912 260.014 45.6953 258.413C45.5995 256.813 44.9572 255.294 43.8763 254.112C42.7953 252.929 41.3414 252.155 39.7583 251.919C38.1752 251.683 36.5593 251.999 35.1814 252.815C33.8035 253.631 32.7474 254.896 32.1904 256.399L36.5523 259.953L31.7456 258.832C31.7476 259.946 32.0157 261.042 32.5276 262.03V262.03Z" fill="#1FFFDA"/>
<path d="M35.9747 248.443C36.8905 248.486 37.8057 248.348 38.6682 248.037C39.5306 247.725 40.3234 247.247 41.0013 246.628C41.6791 246.01 42.2287 245.264 42.6188 244.433C43.0088 243.602 43.2315 242.702 43.2744 241.784C43.3287 240.689 43.1221 239.596 42.6717 238.597C42.2547 237.663 41.6385 236.831 40.8663 236.162C40.0941 235.492 39.1848 234.999 38.2023 234.72L38.2417 237.594L36.6598 234.461C34.8104 234.374 33.0024 235.027 31.6334 236.276C30.2645 237.524 29.4468 239.267 29.3602 241.12C29.2736 242.972 29.9253 244.784 31.1718 246.155C32.4183 247.527 34.1576 248.346 36.007 248.432L35.9747 248.443Z" fill="#1FFFDA"/>
<path d="M19.0294 237.149C19.956 237.21 20.8856 237.086 21.7637 236.784C22.6418 236.481 23.4509 236.006 24.1436 235.386C24.8363 234.767 25.3987 234.015 25.7979 233.175C26.1971 232.335 26.4251 231.424 26.4685 230.495C26.5119 229.565 26.3699 228.637 26.0508 227.763C25.7316 226.889 25.2418 226.088 24.6098 225.406C23.9779 224.725 23.2167 224.176 22.3706 223.793C21.5245 223.409 20.6105 223.199 19.6822 223.173C18.3837 223.113 17.0945 223.421 15.9625 224.061L17.1964 227.446L14.6388 225.017C13.2784 226.259 12.4645 227.99 12.3754 229.832C12.3436 230.48 12.404 231.128 12.5548 231.758C12.9019 233.24 13.7218 234.568 14.8903 235.541C16.0587 236.513 17.5118 237.078 19.0294 237.149Z" fill="#1FFFDA"/>
<path opacity="0.1" d="M21.0203 216.554C22.6309 216.73 24.1948 217.233 25.8126 217.334C27.4303 217.435 29.2059 217.046 30.2282 215.785C30.7806 215.11 31.0533 214.251 31.5196 213.51C31.96 212.821 32.5638 212.252 33.2772 211.854C33.7253 212.74 33.9797 213.712 34.0235 214.705C34.0672 215.697 33.8993 216.688 33.531 217.61C33.1626 218.533 32.6023 219.366 31.8873 220.055C31.1723 220.743 30.319 221.271 29.3843 221.604C28.4496 221.936 27.455 222.065 26.4667 221.982C25.4784 221.899 24.5191 221.606 23.6527 221.122C22.7863 220.639 22.0326 219.976 21.4421 219.177C20.8515 218.379 20.4374 217.464 20.2275 216.493C20.493 216.507 20.7548 216.525 21.0203 216.554Z" fill="black"/>
<path opacity="0.1" d="M19.0292 237.149C20.2321 237.204 21.4287 236.946 22.503 236.401C23.5774 235.857 24.4929 235.043 25.161 234.039C25.829 233.036 26.2268 231.876 26.3157 230.673C26.4047 229.47 26.1819 228.264 25.6688 227.173C25.1158 227.549 24.6397 228.027 24.2663 228.582C23.7677 229.333 23.4663 230.202 22.8817 230.892C21.8055 232.175 19.9367 232.592 18.2544 232.517C16.572 232.441 14.9435 231.96 13.2648 231.798C13.0316 231.776 12.7949 231.762 12.5474 231.755C12.8942 233.238 13.7149 234.568 14.8848 235.541C16.0547 236.515 17.5099 237.079 19.0292 237.149V237.149Z" fill="black"/>
<path opacity="0.1" d="M35.9744 248.443C36.8902 248.486 37.8054 248.348 38.6679 248.037C39.5303 247.725 40.3231 247.247 41.001 246.628C41.6788 246.01 42.2284 245.264 42.6185 244.433C43.0085 243.602 43.2312 242.702 43.2741 241.784C43.3284 240.689 43.1218 239.596 42.6714 238.597C42.0959 238.981 41.5961 239.468 41.1972 240.034C40.6555 240.8 40.3147 241.684 39.6798 242.392C38.5033 243.703 36.5232 244.167 34.7405 244.124C33.0115 244.088 31.3471 243.664 29.6289 243.531C30.0548 244.904 30.8924 246.111 32.0277 246.99C33.1631 247.869 34.5411 248.377 35.9744 248.443V248.443Z" fill="black"/>
<path opacity="0.1" d="M32.5273 262.031C33.3396 263.63 34.7344 264.855 36.4232 265.453C38.112 266.051 39.9655 265.975 41.6003 265.242C43.2352 264.509 44.5262 263.174 45.2063 261.515C45.8864 259.855 45.9035 257.996 45.2542 256.324C44.6795 256.703 44.1635 257.164 43.7225 257.693C43.0589 258.505 42.6213 259.425 41.8537 260.18C40.4189 261.581 38.1231 262.16 36.0714 262.214C34.8874 262.223 33.704 262.162 32.5273 262.031V262.031Z" fill="black"/>
<path d="M241.588 241.817C241.595 240.946 241.398 240.085 241.013 239.304C240.628 238.522 240.065 237.842 239.371 237.318C239.285 234.022 236.939 231.331 233.922 230.914C233.689 229.794 233.166 228.756 232.405 227.903C231.645 227.05 230.674 226.413 229.589 226.056V226.056C229.325 225.972 229.055 225.908 228.782 225.865H228.703L228.563 225.847H228.445H228.326H228.172H228.079H227.824C224.747 225.847 222.185 228.205 221.658 231.313C219.667 230.853 217.842 231.449 217.515 232.711C217.431 233.045 217.45 233.397 217.569 233.721C217.906 234.698 219.004 235.632 220.492 236.096L220.686 236.153C220.783 236.182 220.88 236.204 220.977 236.225H221.041C220.494 237.394 220.416 238.729 220.824 239.954C221.232 241.179 222.095 242.2 223.233 242.805C223.188 242.83 223.145 242.857 223.104 242.888C222.92 243.057 222.773 243.262 222.673 243.491C222.314 244.124 222.034 244.799 221.841 245.5C221.698 246.1 221.673 246.729 221.482 247.322C221.156 248.4 220.317 249.345 220.22 250.492C220.177 251.002 220.259 251.602 219.897 251.951C219.807 252.028 219.711 252.099 219.61 252.163C219.356 252.337 219.141 252.562 218.979 252.824C218.873 253.041 218.731 253.237 218.559 253.406C218.233 253.654 217.694 253.629 217.533 254.01C217.372 254.391 217.788 254.84 217.691 255.257C217.612 255.595 217.242 255.749 216.973 255.975C216.673 256.302 216.462 256.703 216.364 257.136C215.828 257.24 215.276 257.223 214.747 257.089C214.218 256.954 213.725 256.704 213.304 256.356C213.448 256.727 213.554 257.111 213.62 257.503C213.193 257.046 212.49 256.913 211.97 256.676C211.299 256.368 210.7 255.923 210.212 255.368L211.152 255.239L206.991 248.914L205.764 248.663L206.865 250.779C206.775 250.822 206.696 250.886 206.634 250.964C206.572 251.043 206.528 251.134 206.506 251.232C206.447 251.467 206.433 251.711 206.463 251.951C206.522 252.518 206.616 253.081 206.747 253.636L207.066 255.124C207.093 255.263 207.128 255.401 207.17 255.537C206.754 255.522 206.338 255.569 205.936 255.677C205.111 255.372 204.252 255.168 203.379 255.07C203.186 255.036 202.989 255.046 202.801 255.099C202.588 255.197 202.403 255.348 202.263 255.537C201.545 256.368 200.909 257.266 200.362 258.218C198.127 262.113 195.143 265.513 192.348 269.034C190.418 269.821 188.474 270.569 186.527 271.309L182.34 272.908C181.505 273.228 180.637 273.555 179.747 273.498C179.345 273.472 178.857 273.411 178.631 273.753C178.521 273.922 178.436 274.106 178.377 274.299C178.23 274.299 178.083 274.335 177.946 274.342H177.921C177.656 273.681 177.426 272.973 176.917 272.491C176.814 272.507 176.717 272.548 176.635 272.611C176.552 272.674 176.486 272.756 176.443 272.851C176.343 273.038 176.282 273.242 176.167 273.415C175.941 273.745 175.55 273.907 175.27 274.187C174.991 274.468 174.815 274.906 174.514 275.179C174.092 275.487 173.597 275.679 173.079 275.736C172.302 275.919 171.553 276.205 170.851 276.584C170.592 276.744 170.315 276.872 170.026 276.965C169.708 277.026 169.383 277.037 169.061 276.998L166.844 276.836C166.647 276.81 166.447 276.819 166.253 276.861C166.024 276.945 165.83 277.102 165.7 277.308C165.57 277.514 165.512 277.758 165.535 278C165.562 278.241 165.638 278.474 165.758 278.684C165.879 278.894 166.041 279.077 166.235 279.222C166.619 279.505 167.045 279.726 167.497 279.88C169.424 280.627 171.409 281.21 173.434 281.623V282.072C174.837 282.78 176.386 283.149 177.957 283.15C178.073 283.159 178.189 283.138 178.294 283.089C178.439 282.979 178.54 282.821 178.578 282.643C179.048 281.234 179.345 279.773 179.464 278.291C179.741 278.273 180.012 278.204 180.264 278.086C181.028 277.878 181.784 278.403 182.57 278.489C183.539 278.593 184.439 278.029 185.354 277.68C185.486 277.63 185.619 277.587 185.752 277.544C185.491 277.882 185.183 278.181 184.837 278.431C184.457 278.705 184.03 278.906 183.657 279.19C183.347 279.473 183.015 279.732 182.663 279.962C182.416 280.078 182.16 280.176 181.899 280.257C181.521 280.395 181.16 280.577 180.823 280.8C180.522 280.977 180.266 281.224 180.077 281.518C179.982 281.656 179.923 281.816 179.907 281.982C179.891 282.149 179.917 282.317 179.984 282.47C180.051 282.624 180.156 282.758 180.289 282.859C180.422 282.96 180.579 283.026 180.744 283.049C181.044 283.102 181.35 283.111 181.652 283.074C182.85 282.984 184.044 282.873 185.239 282.765C185.744 282.732 186.247 282.659 186.742 282.55C187.004 282.485 187.262 282.399 187.524 282.33C187.97 282.212 188.429 282.144 188.89 282.126C189.024 282.115 189.159 282.128 189.289 282.165C189.568 282.255 189.766 282.525 190.049 282.596C190.233 282.614 190.419 282.588 190.591 282.521C191.465 282.331 192.357 282.236 193.252 282.237C193.643 282.215 194.102 282.14 194.285 281.777C194.508 281.328 194.135 280.825 193.988 280.34C193.913 280.031 193.872 279.715 193.866 279.398C193.797 278.615 193.573 277.854 193.206 277.159C193.01 276.835 192.846 276.494 192.714 276.139C194.428 275.486 196.068 274.652 197.607 273.652C198.489 273.102 199.4 272.509 200.398 272.308C201.56 272.074 202.758 272.384 203.902 272.714C206.628 273.504 209.309 274.441 211.934 275.521C213.189 276.035 214.445 276.581 215.729 276.958C216.104 277.466 216.558 277.91 217.074 278.273C217.935 278.83 218.986 278.992 219.997 279.071C221.364 279.196 222.736 279.248 224.108 279.226C225.156 279.208 226.235 279.136 227.171 278.658C227.4 278.54 227.615 278.398 227.814 278.234C228.531 278.363 229.266 277.979 229.829 277.486C230.575 276.851 231.112 276.006 231.372 275.061C231.702 273.763 231.447 272.251 232.244 271.19C232.455 270.907 232.731 270.677 232.939 270.389C233.196 270.004 233.321 269.547 233.298 269.085L233.334 269.031C233.514 268.614 233.635 268.173 233.693 267.723C233.787 267.371 233.907 267.026 234.051 266.691C234.456 265.689 234.808 264.665 235.106 263.626C235.313 262.937 235.476 262.234 235.594 261.524C235.68 260.956 235.73 260.385 235.777 259.813C235.834 258.919 236.008 258.036 236.293 257.186C237.001 255.159 237.402 253.037 237.481 250.891C237.481 250.847 237.481 250.808 237.481 250.765C238.522 250.65 239.483 250.151 240.177 249.364C240.87 248.577 241.245 247.559 241.229 246.51C241.23 245.877 241.098 245.252 240.842 244.674C241.337 243.804 241.594 242.818 241.588 241.817V241.817ZM221.303 266.508C221.364 266.727 221.436 266.946 221.508 267.166C221.177 266.839 220.851 266.501 220.517 266.177C220.65 266.217 220.783 266.26 220.912 266.307C221.05 266.361 221.182 266.429 221.307 266.508H221.303ZM219.696 265.43C217.737 263.727 215.47 262.404 213.465 260.758C214.541 261.301 215.618 261.93 216.694 262.534C217.947 263.252 219.214 263.94 220.496 264.596C220.286 264.916 220.018 265.194 219.707 265.416L219.696 265.43ZM220.532 261.139L220.625 261.042C220.625 261.283 220.625 261.509 220.625 261.714C220.449 261.657 220.266 261.599 220.098 261.535C220.253 261.408 220.399 261.271 220.535 261.125L220.532 261.139ZM203.289 265.753C204.095 264.84 204.797 263.838 205.38 262.767C206.155 264.129 207.418 265.11 208.494 266.249C206.765 266.005 205.032 265.815 203.292 265.739L203.289 265.753Z" fill="url(#paint0_linear)"/>
<path d="M206.087 249.187L207.324 249.439L211.539 255.677L209.678 255.928L206.087 249.187Z" fill="#2F2E41"/>
<path d="M176.117 274.507C176.451 275.613 176.862 276.694 177.348 277.741C178.744 277.449 180.118 277.056 181.458 276.566C181.199 276.161 180.914 275.774 180.605 275.405C180.275 275.039 179.881 274.735 179.442 274.511C179.016 274.324 178.488 274.464 178.033 274.489C177.394 274.513 176.756 274.519 176.117 274.507Z" fill="#FBBEBE"/>
<path d="M179.449 276.174C178.753 275.955 178.326 275.251 178.043 274.572C177.76 273.893 177.53 273.152 176.992 272.653C176.89 272.669 176.793 272.71 176.71 272.773C176.628 272.836 176.562 272.918 176.519 273.012C176.415 273.192 176.354 273.397 176.235 273.569C176.013 273.893 175.618 274.051 175.335 274.327C175.051 274.604 174.876 275.025 174.571 275.301C174.148 275.606 173.654 275.796 173.136 275.855C172.354 276.032 171.599 276.313 170.891 276.688C170.628 276.841 170.349 276.961 170.058 277.048C169.738 277.109 169.41 277.12 169.086 277.08L166.851 276.918C166.653 276.894 166.451 276.903 166.256 276.947C166.028 277.026 165.834 277.18 165.704 277.383C165.574 277.587 165.516 277.828 165.539 278.068C165.568 278.308 165.647 278.539 165.771 278.746C165.894 278.953 166.06 279.132 166.256 279.272C166.645 279.55 167.073 279.768 167.526 279.919C169.473 280.652 171.476 281.226 173.516 281.633V282.075C174.934 282.778 176.493 283.147 178.075 283.153C178.198 283.164 178.322 283.143 178.434 283.092C178.579 282.985 178.681 282.83 178.721 282.654C179.257 281.083 179.57 279.446 179.65 277.788C179.691 277.369 179.66 276.946 179.557 276.537C179.435 276.135 179.851 276.304 179.464 276.146" fill="#2F2E41"/>
<path d="M222.293 267.737C215.668 268.14 209.125 266.192 202.489 265.983C201.665 265.933 200.839 265.986 200.028 266.142C199.183 266.368 198.365 266.687 197.589 267.09C194.034 268.747 190.354 270.12 186.677 271.492L182.459 273.066C181.612 273.379 180.741 273.699 179.84 273.645C179.438 273.62 178.947 273.559 178.717 273.896C178.032 274.913 178.359 276.412 178.811 277.555C178.958 277.914 179.205 278.327 179.6 278.37C179.879 278.351 180.152 278.282 180.407 278.166C181.175 277.961 181.942 278.478 182.731 278.561C183.711 278.665 184.618 278.108 185.54 277.767C187.068 277.202 188.74 277.22 190.347 276.951C193.044 276.502 195.541 275.248 197.879 273.817C198.769 273.275 199.673 272.693 200.692 272.495C201.865 272.265 203.074 272.567 204.225 272.894C206.97 273.672 209.672 274.595 212.321 275.657C213.699 276.257 215.113 276.773 216.554 277.202C219.694 278.031 223.015 277.837 226.038 276.649C227.114 276.229 228.247 275.488 228.308 274.342C228.344 273.688 227.839 273.113 227.501 272.545C227.283 272.186 227.067 271.827 226.831 271.485C225.69 269.818 224.305 267.615 222.293 267.737Z" fill="#2F2E41"/>
<path opacity="0.1" d="M222.293 267.737C215.668 268.14 209.125 266.192 202.489 265.983C201.665 265.933 200.839 265.986 200.028 266.142C199.183 266.368 198.365 266.687 197.589 267.09C194.034 268.747 190.354 270.12 186.677 271.492L182.459 273.066C181.612 273.379 180.741 273.699 179.84 273.645C179.438 273.62 178.947 273.559 178.717 273.896C178.032 274.913 178.359 276.412 178.811 277.555C178.958 277.914 179.205 278.327 179.6 278.37C179.879 278.351 180.152 278.282 180.407 278.166C181.175 277.961 181.942 278.478 182.731 278.561C183.711 278.665 184.618 278.108 185.54 277.767C187.068 277.202 188.74 277.22 190.347 276.951C193.044 276.502 195.541 275.248 197.879 273.817C198.769 273.275 199.673 272.693 200.692 272.495C201.865 272.265 203.074 272.567 204.225 272.894C206.97 273.672 209.672 274.595 212.321 275.657C213.699 276.257 215.113 276.773 216.554 277.202C219.694 278.031 223.015 277.837 226.038 276.649C227.114 276.229 228.247 275.488 228.308 274.342C228.344 273.688 227.839 273.113 227.501 272.545C227.283 272.186 227.067 271.827 226.831 271.485C225.69 269.818 224.305 267.615 222.293 267.737Z" fill="black"/>
<path d="M188.833 274.831C189.871 275.183 190.916 275.509 191.968 275.808C192.56 274.834 193.665 274.159 193.916 273.048C193.93 273 193.93 272.949 193.916 272.901C193.888 272.854 193.847 272.816 193.797 272.793C193.041 272.375 192.202 272.13 191.34 272.074C190.659 272.031 190.35 272.743 190.042 273.242C189.934 273.444 189.109 274.924 188.833 274.831Z" fill="#FBBEBE"/>
<path d="M190.293 274.119C189.983 274.067 189.688 273.952 189.425 273.779C189.163 273.606 188.939 273.381 188.768 273.117C188.621 272.861 188.467 272.516 188.173 272.534C187.879 272.552 187.778 272.876 187.717 273.145C187.519 274.152 187.232 275.139 186.86 276.096C186.485 277.055 185.85 277.89 185.027 278.507C184.643 278.773 184.217 278.974 183.84 279.254C183.526 279.535 183.19 279.789 182.836 280.016C182.586 280.131 182.328 280.227 182.064 280.304C181.678 280.439 181.308 280.618 180.963 280.839C180.66 281.017 180.404 281.263 180.213 281.558C180.122 281.707 180.068 281.877 180.056 282.053C180.045 282.228 180.077 282.404 180.149 282.564C180.226 282.694 180.33 282.807 180.454 282.894C180.577 282.981 180.718 283.041 180.866 283.071C181.169 283.121 181.477 283.128 181.781 283.092C182.99 283.002 184.195 282.895 185.4 282.787C185.91 282.755 186.418 282.685 186.918 282.578C187.183 282.514 187.441 282.427 187.703 282.359C188.155 282.244 188.618 282.176 189.084 282.158C189.219 282.148 189.355 282.161 189.486 282.197C189.766 282.287 189.963 282.557 190.25 282.621C190.435 282.641 190.622 282.616 190.795 282.55C191.677 282.363 192.577 282.269 193.478 282.269C193.873 282.248 194.339 282.172 194.519 281.816C194.745 281.374 194.371 280.879 194.221 280.404C194.146 280.1 194.104 279.79 194.095 279.477C194.027 278.705 193.801 277.955 193.432 277.274C193.123 276.706 192.714 276.081 192.919 275.477C193.029 275.289 193.098 275.08 193.123 274.863C193.073 273.889 190.838 274.248 190.293 274.119Z" fill="#2F2E41"/>
<path d="M212.36 257.093C211.187 256.574 210.246 255.638 209.72 254.466C209.613 254.214 209.52 253.952 209.416 253.697C209.066 252.853 208.526 252.103 207.837 251.505C207.763 251.424 207.673 251.359 207.572 251.317C207.471 251.274 207.362 251.253 207.253 251.257C207.147 251.289 207.051 251.348 206.975 251.429C206.9 251.509 206.847 251.609 206.822 251.717C206.761 251.951 206.745 252.195 206.775 252.436C206.837 252.993 206.933 253.547 207.062 254.092L207.385 255.558C207.426 255.784 207.493 256.003 207.586 256.212C207.724 256.458 207.907 256.677 208.124 256.856C208.418 257.129 208.716 257.391 209.017 257.646C209.183 257.797 209.365 257.929 209.559 258.042C209.877 258.193 210.218 258.292 210.567 258.336C211.883 258.581 213.221 258.933 214.33 259.774C214.33 259.774 214.33 258.793 214.305 258.696C214.291 258.411 214.194 258.137 214.025 257.909C213.609 257.459 212.891 257.326 212.36 257.093Z" fill="#FBBEBE"/>
<path opacity="0.1" d="M212.36 257.093C211.187 256.574 210.246 255.638 209.72 254.466C209.613 254.214 209.52 253.952 209.416 253.697C209.066 252.853 208.526 252.103 207.837 251.505C207.763 251.424 207.673 251.359 207.572 251.317C207.471 251.274 207.362 251.253 207.253 251.257C207.147 251.289 207.051 251.348 206.975 251.429C206.9 251.509 206.847 251.609 206.822 251.717C206.761 251.951 206.745 252.195 206.775 252.436C206.837 252.993 206.933 253.547 207.062 254.092L207.385 255.558C207.426 255.784 207.493 256.003 207.586 256.212C207.724 256.458 207.907 256.677 208.124 256.856C208.418 257.129 208.716 257.391 209.017 257.646C209.183 257.797 209.365 257.929 209.559 258.042C209.877 258.193 210.218 258.292 210.567 258.336C211.883 258.581 213.221 258.933 214.33 259.774C214.33 259.774 214.33 258.793 214.305 258.696C214.291 258.411 214.194 258.137 214.025 257.909C213.609 257.459 212.891 257.326 212.36 257.093Z" fill="black"/>
<path d="M225.848 245.881C226.737 245.881 227.458 245.154 227.458 244.257C227.458 243.36 226.737 242.633 225.848 242.633C224.958 242.633 224.237 243.36 224.237 244.257C224.237 245.154 224.958 245.881 225.848 245.881Z" fill="#2F2E41"/>
<path d="M224.851 243.276C224.418 243.177 223.964 243.242 223.577 243.459C223.391 243.624 223.243 243.827 223.143 244.055C222.781 244.676 222.499 245.34 222.304 246.032C222.16 246.625 222.135 247.243 221.945 247.829C221.615 248.907 220.769 249.823 220.672 250.948C220.629 251.451 220.711 252.044 220.345 252.385C220.254 252.462 220.157 252.53 220.055 252.59C219.8 252.761 219.584 252.984 219.42 253.244C219.31 253.478 219.158 253.688 218.971 253.866C218.641 254.11 218.1 254.085 217.938 254.462C217.777 254.84 218.193 255.278 218.096 255.688C218.017 256.022 217.644 256.176 217.379 256.406C217.076 256.727 216.865 257.123 216.765 257.553C216.227 257.654 215.672 257.638 215.14 257.505C214.608 257.371 214.112 257.124 213.684 256.78C214.132 257.891 214.143 259.116 214.161 260.313C214.213 260.695 214.111 261.083 213.878 261.391C215.162 261.419 216.41 261.75 217.662 262.048C218.198 262.228 218.777 262.228 219.312 262.048C219.598 261.894 219.855 261.689 220.069 261.445C220.751 260.751 221.464 260.007 221.629 259.041C221.673 258.497 221.683 257.951 221.658 257.405C221.724 256.733 221.862 256.069 222.071 255.425C222.431 254.09 222.671 252.725 222.788 251.347C222.863 250.495 223.595 249.812 223.983 249.05C224.7 247.613 225.453 246.122 225.511 244.512C225.561 243.987 225.381 243.344 224.851 243.276Z" fill="#2F2E41"/>
<path opacity="0.1" d="M224.851 243.276C224.418 243.177 223.964 243.242 223.577 243.459C223.391 243.624 223.243 243.827 223.143 244.055C222.781 244.676 222.499 245.34 222.304 246.032C222.16 246.625 222.135 247.243 221.945 247.829C221.615 248.907 220.769 249.823 220.672 250.948C220.629 251.451 220.711 252.044 220.345 252.385C220.254 252.462 220.157 252.53 220.055 252.59C219.8 252.761 219.584 252.984 219.42 253.244C219.31 253.478 219.158 253.688 218.971 253.866C218.641 254.11 218.1 254.085 217.938 254.462C217.777 254.84 218.193 255.278 218.096 255.688C218.017 256.022 217.644 256.176 217.379 256.406C217.076 256.727 216.865 257.123 216.765 257.553C216.227 257.654 215.672 257.638 215.14 257.505C214.608 257.371 214.112 257.124 213.684 256.78C214.132 257.891 214.143 259.116 214.161 260.313C214.213 260.695 214.111 261.083 213.878 261.391C215.162 261.419 216.41 261.75 217.662 262.048C218.198 262.228 218.777 262.228 219.312 262.048C219.598 261.894 219.855 261.689 220.069 261.445C220.751 260.751 221.464 260.007 221.629 259.041C221.673 258.497 221.683 257.951 221.658 257.405C221.724 256.733 221.862 256.069 222.071 255.425C222.431 254.09 222.671 252.725 222.788 251.347C222.863 250.495 223.595 249.812 223.983 249.05C224.7 247.613 225.453 246.122 225.511 244.512C225.561 243.987 225.381 243.344 224.851 243.276Z" fill="black"/>
<path d="M223.344 269.135C221.963 268.477 220.955 267.252 219.84 266.203C217.709 264.197 215.105 262.782 212.866 260.902C211.385 259.659 210.058 258.211 208.426 257.168C206.99 256.251 205.362 255.679 203.669 255.497C203.476 255.464 203.277 255.473 203.088 255.526C202.874 255.622 202.688 255.77 202.547 255.957C201.823 256.774 201.181 257.658 200.627 258.599C197.79 263.421 193.762 267.478 190.422 271.967C190.315 272.072 190.252 272.215 190.244 272.365C190.237 272.515 190.286 272.663 190.383 272.779L191.061 274.112C191.441 274.856 192.051 275.725 192.854 275.578C193.223 275.472 193.553 275.261 193.805 274.971L196.854 272.049L200.05 268.988C201.922 267.191 203.827 265.358 205.05 263.065C206.004 264.722 207.698 265.807 208.86 267.327C209.301 267.902 209.66 268.538 210.054 269.149C210.689 270.13 211.407 271.05 212.124 271.967L215.794 276.656C216.256 277.324 216.83 277.908 217.49 278.381C218.358 278.931 219.416 279.078 220.439 279.168C221.816 279.294 223.199 279.344 224.582 279.319C225.636 279.301 226.734 279.233 227.667 278.762C228.599 278.291 229.392 277.325 229.342 276.272C229.285 275.72 229.105 275.188 228.815 274.716C227.52 272.308 225.805 270.296 223.344 269.135Z" fill="#2F2E41"/>
<path d="M226.838 246.628C227.522 246.628 228.076 246.07 228.076 245.381C228.076 244.693 227.522 244.135 226.838 244.135C226.155 244.135 225.601 244.693 225.601 245.381C225.601 246.07 226.155 246.628 226.838 246.628Z" fill="#E8E8F0"/>
<path d="M226.565 244.444C226.845 245.001 226.894 245.647 226.702 246.241C226.51 246.824 226.243 247.38 225.905 247.894C225.615 248.424 225.267 248.92 224.869 249.374C226.781 249.468 228.635 248.716 230.321 247.804C231.68 247.085 233.036 246.169 233.761 244.8C233.545 244.851 233.321 244.857 233.103 244.817C232.885 244.776 232.678 244.691 232.495 244.566C232.13 244.311 231.803 244.006 231.523 243.66L230.565 242.582C230.339 242.346 230.14 242.084 229.973 241.803C229.763 241.42 229.675 240.983 229.718 240.548C229.337 240.948 228.911 241.303 228.449 241.605C227.763 242.054 227.014 242.377 226.321 242.819C226.077 242.978 225.536 243.233 225.676 243.538C225.816 243.844 226.372 244.099 226.565 244.444Z" fill="#FBBEBE"/>
<path opacity="0.1" d="M226.565 244.444C226.845 245.001 226.894 245.647 226.702 246.241C226.51 246.824 226.243 247.38 225.905 247.894C225.615 248.424 225.267 248.92 224.869 249.374C226.781 249.468 228.635 248.716 230.321 247.804C231.68 247.085 233.036 246.169 233.761 244.8C233.545 244.851 233.321 244.857 233.103 244.817C232.885 244.776 232.678 244.691 232.495 244.566C232.13 244.311 231.803 244.006 231.523 243.66L230.565 242.582C230.339 242.346 230.14 242.084 229.973 241.803C229.763 241.42 229.675 240.983 229.718 240.548C229.337 240.948 228.911 241.303 228.449 241.605C227.763 242.054 227.014 242.377 226.321 242.819C226.077 242.978 225.536 243.233 225.676 243.538C225.816 243.844 226.372 244.099 226.565 244.444Z" fill="black"/>
<path d="M226.59 244.63C226.397 244.904 226.293 245.231 226.293 245.567C226.293 245.902 226.397 246.229 226.59 246.503C226.644 246.571 226.848 246.999 226.949 247.002C227.033 246.995 227.112 246.955 227.168 246.891C227.601 246.437 228.006 245.957 228.38 245.453C228.758 244.943 229.305 244.584 229.923 244.44C230.672 244.321 231.393 244.72 232.05 245.101C232.332 245.242 232.577 245.446 232.767 245.698C232.905 245.948 232.987 246.225 233.007 246.51C233.196 248.223 233.268 249.947 233.223 251.67C233.257 252.912 233.176 254.155 232.979 255.382C232.857 256.015 232.674 256.633 232.588 257.273C232.525 257.836 232.5 258.402 232.512 258.969V261.34C232.497 261.775 232.528 262.21 232.606 262.638C232.754 263.148 232.927 263.651 233.126 264.143C233.3 264.73 233.42 265.331 233.484 265.94L233.807 268.395C233.911 269.171 233.987 270.015 233.517 270.637C233.309 270.921 233.029 271.144 232.799 271.424C231.992 272.452 232.261 273.943 231.903 275.219C231.637 276.155 231.094 276.988 230.346 277.608C229.775 278.094 229.037 278.478 228.298 278.327C227.304 278.14 226.705 277.102 226.432 276.121C226.16 275.14 226.074 274.069 225.475 273.246C224.994 272.567 224.251 272.143 223.581 271.657C222.91 271.172 222.25 270.551 222.103 269.731C222.038 269.372 222.078 269.013 222.042 268.653C221.988 268.195 221.813 267.76 221.534 267.393C221.255 267.027 220.883 266.742 220.456 266.569C219.947 266.371 219.316 266.3 219.021 265.85C219.752 265.391 220.284 264.674 220.514 263.842C220.736 263.021 220.857 262.176 220.872 261.326L221.045 258.473C221.12 257.197 221.156 255.932 221.715 254.786C221.966 254.276 222.279 253.794 222.537 253.287C222.883 252.576 223.178 251.841 223.419 251.088C223.825 249.92 224.233 248.749 224.596 247.566C224.741 246.994 224.958 246.442 225.241 245.924C225.575 245.385 226.016 244.738 226.59 244.63Z" fill="#E8E8F0"/>
<path d="M220.266 263.17L221.02 263.195L221.181 262.056C221.203 261.828 221.256 261.604 221.339 261.391C221.464 261.166 221.609 260.953 221.773 260.755C222.516 259.705 222.462 258.311 222.645 257.035C222.889 255.336 223.599 253.74 224.302 252.173L225.765 248.907C225.896 248.638 226 248.358 226.077 248.069C226.141 247.751 226.171 247.427 226.167 247.103C226.167 246.6 226.332 244.763 226.343 244.257C226.343 244.07 225.934 244.174 225.848 244.009C225.665 243.649 225.414 244.627 225.07 244.842C224.745 245.091 224.509 245.437 224.395 245.831C224.08 246.654 223.886 247.52 223.592 248.346C223.334 249.193 222.863 249.958 222.225 250.571C221.927 250.836 221.579 251.045 221.296 251.325C220.385 252.227 220.299 253.65 220.266 254.919C220.245 255.706 220.098 263.17 220.266 263.17Z" fill="#2F2E41"/>
<path d="M231.117 243.269C230.4 243.556 229.984 244.347 229.779 245.116C229.575 245.885 229.489 246.697 229.094 247.38C228.176 248.982 225.833 249.45 225.184 251.182C225.019 251.766 224.931 252.371 224.922 252.978C224.808 254.218 224.399 255.418 224.277 256.658C224.213 257.623 224.236 258.591 224.345 259.551L225.166 269.336C225.326 270.777 225.242 272.235 224.919 273.648C225.761 273.77 226.62 273.628 227.379 273.242C228.151 272.883 228.854 272.409 229.593 271.999C230.866 271.28 232.272 270.795 233.384 269.843C233.586 269.685 233.759 269.495 233.897 269.279C234.076 268.867 234.196 268.433 234.256 267.989C234.35 267.642 234.47 267.304 234.614 266.975C235.026 265.989 235.386 264.981 235.691 263.957C235.899 263.277 236.064 262.584 236.182 261.883C236.272 261.326 236.318 260.762 236.369 260.201C236.426 259.32 236.601 258.449 236.889 257.614C237.6 255.621 238.003 253.53 238.083 251.415C238.108 251.11 238.087 250.802 238.022 250.502C237.898 250.139 237.732 249.792 237.527 249.467C237.186 248.824 236.982 248.116 236.659 247.466C235.942 245.993 234.654 244.875 233.309 243.937C232.62 243.481 231.863 242.985 231.117 243.269Z" fill="#2F2E41"/>
<path d="M213.993 259.235C213.41 258.93 212.883 258.529 212.432 258.049C212.228 257.808 212.074 257.539 211.851 257.301C211.324 256.739 210.641 256.348 209.889 256.18C209.143 256.015 208.379 255.942 207.615 255.961C207.104 255.926 206.592 255.988 206.105 256.144C205.86 256.224 205.64 256.365 205.464 256.554C205.288 256.742 205.163 256.972 205.1 257.222C204.989 257.833 205.387 258.426 205.864 258.814C206.308 259.177 206.83 259.432 207.389 259.558C207.845 259.637 208.305 259.691 208.766 259.72C211.478 260.004 213.899 261.481 216.274 262.828C218.362 264.009 220.49 265.115 222.659 266.145C222.745 265.495 222.781 264.839 222.767 264.183C222.767 263.694 222.731 262.947 222.268 262.659C221.73 262.322 220.833 262.246 220.238 262.045C218.84 261.588 217.475 261.036 216.152 260.392C215.402 260.029 214.685 259.644 213.993 259.235Z" fill="#FBBEBE"/>
<path d="M225.848 243.887C228.516 243.887 230.68 241.707 230.68 239.017C230.68 236.328 228.516 234.148 225.848 234.148C223.179 234.148 221.016 236.328 221.016 239.017C221.016 241.707 223.179 243.887 225.848 243.887Z" fill="#FBBEBE"/>
<path d="M232.498 248.788C232.114 249.33 231.799 249.918 231.562 250.538C230.963 251.771 230.027 252.827 229.561 254.132C229.066 255.486 229.084 257.1 228.126 258.167C227.933 258.329 227.788 258.54 227.706 258.778C227.7 258.927 227.683 259.074 227.656 259.22C227.52 259.608 226.885 259.626 226.766 260.022C226.734 260.137 226.766 260.262 226.709 260.381C226.612 260.636 226.278 260.672 226.053 260.826C225.583 261.146 225.694 261.887 225.335 262.347C225.189 262.517 225.001 262.646 224.789 262.721C224.578 262.795 224.35 262.813 224.13 262.771C223.69 262.678 223.267 262.519 222.874 262.3C222.736 262.222 222.584 262.174 222.426 262.16C222.239 262.164 222.057 262.225 221.906 262.336C221.013 262.904 220.593 264.032 220.6 265.096C220.663 266.159 220.915 267.203 221.343 268.179C221.393 268.347 221.477 268.504 221.59 268.639C221.884 268.951 222.401 268.901 222.795 268.725C223.165 268.506 223.559 268.33 223.968 268.2C224.715 268.064 225.446 268.581 226.203 268.538C226.757 268.454 227.278 268.223 227.713 267.87C228.482 267.402 229.17 266.814 229.751 266.127C230.081 265.692 230.325 265.196 230.615 264.733C230.986 264.163 231.394 263.618 231.835 263.101L234.622 259.684C234.902 259.36 235.152 259.013 235.372 258.645C235.623 258.148 235.819 257.625 235.956 257.086C236.255 256.185 236.449 255.253 236.534 254.308C236.548 253.525 236.48 252.744 236.329 251.976C236.236 251.212 236.034 250.465 235.73 249.758C235.11 248.501 233.636 247.459 232.498 248.788Z" fill="#2F2E41"/>
<path d="M242.205 242.446C242.209 241.582 242.008 240.73 241.619 239.96C241.23 239.19 240.663 238.523 239.967 238.015C239.946 236.482 239.382 235.007 238.376 233.852C237.37 232.697 235.988 231.937 234.475 231.708C234.182 230.256 233.388 228.955 232.231 228.032C231.075 227.11 229.63 226.626 228.152 226.666C226.675 226.706 225.258 227.267 224.153 228.251C223.048 229.234 222.324 230.577 222.11 232.042C220.102 231.59 218.265 232.179 217.931 233.419C217.573 234.716 219.008 236.232 221.131 236.807C221.796 236.996 222.49 237.065 223.179 237.012C223.673 237.739 224.313 238.354 225.058 238.818C225.803 239.282 226.637 239.585 227.505 239.707C227.76 240.88 228.337 241.957 229.17 242.819C230.004 243.68 231.061 244.292 232.222 244.584C232.544 245.362 233.042 246.053 233.679 246.603C233.679 246.754 233.653 246.909 233.653 247.067C233.63 247.619 233.719 248.171 233.914 248.688C234.109 249.205 234.407 249.677 234.789 250.077C235.171 250.476 235.629 250.793 236.137 251.01C236.645 251.227 237.191 251.339 237.743 251.339C238.295 251.339 238.841 251.227 239.348 251.01C239.856 250.793 240.315 250.476 240.697 250.077C241.079 249.677 241.376 249.205 241.571 248.688C241.766 248.171 241.855 247.619 241.832 247.067C241.832 246.447 241.699 245.834 241.441 245.27C241.945 244.415 242.209 243.439 242.205 242.446V242.446Z" fill="#F86D70"/>
<path opacity="0.1" d="M219.295 233.667C219.628 232.427 221.447 231.837 223.474 232.29C223.709 230.802 224.462 229.445 225.6 228.459C226.737 227.472 228.186 226.92 229.69 226.9C229.83 226.9 229.97 226.9 230.106 226.9C229.525 226.722 228.92 226.633 228.313 226.634C226.808 226.654 225.36 227.206 224.222 228.193C223.085 229.179 222.332 230.536 222.096 232.024C220.087 231.572 218.251 232.161 217.917 233.401C217.559 234.698 218.993 236.214 221.117 236.789C221.512 236.899 221.917 236.969 222.326 236.998C220.31 236.408 218.954 234.935 219.295 233.667Z" fill="black"/>
<path opacity="0.1" d="M235.016 247.318C235.016 247.16 235.016 247.006 235.041 246.851C234.405 246.303 233.906 245.612 233.585 244.835C232.424 244.54 231.369 243.927 230.536 243.066C229.703 242.204 229.125 241.127 228.868 239.955C227.999 239.833 227.165 239.531 226.42 239.067C225.675 238.602 225.035 237.987 224.542 237.26C224.14 237.292 223.736 237.281 223.337 237.228C223.833 237.897 224.457 238.461 225.172 238.887C225.888 239.313 226.681 239.592 227.505 239.707C227.76 240.88 228.337 241.957 229.17 242.819C230.004 243.68 231.061 244.291 232.222 244.584C232.543 245.362 233.042 246.053 233.678 246.603C233.678 246.754 233.653 246.909 233.653 247.067C233.635 248.169 234.052 249.233 234.815 250.027C235.577 250.822 236.621 251.282 237.721 251.307C236.918 250.997 236.23 250.449 235.746 249.736C235.263 249.024 235.008 248.18 235.016 247.318Z" fill="black"/>
<path d="M228.058 240.801C228.386 240.552 228.383 239.994 228.051 239.557C227.72 239.119 227.184 238.966 226.856 239.216C226.528 239.466 226.531 240.023 226.863 240.461C227.195 240.899 227.73 241.051 228.058 240.801Z" fill="#FBBEBE"/>
<path d="M112.562 265.031L117.34 262.217C116.694 261.112 115.868 260.122 114.897 259.289L105.886 262.095L112.945 257.937C111.197 256.978 109.23 256.492 107.237 256.526C105.245 256.56 103.295 257.113 101.581 258.131C99.866 259.148 98.4454 260.596 97.4588 262.331C96.4722 264.066 95.9534 266.028 95.9536 268.025C95.9536 274.374 101.094 274.594 107.432 274.594C113.771 274.594 118.911 274.374 118.911 268.025C118.915 266.415 118.578 264.823 117.924 263.353L112.562 265.031Z" fill="#1FFFDA"/>
<path opacity="0.1" d="M113.778 271.205C113.269 270.694 112.7 270.246 112.085 269.871C111.22 269.293 110.32 268.704 109.297 268.51C108.401 268.337 107.475 268.484 106.561 268.43C104.972 268.333 103.477 267.647 102.367 266.504C101.714 265.829 101.201 264.999 100.416 264.481C99.5379 263.959 98.5019 263.769 97.496 263.946C97.2045 263.986 96.9158 264.045 96.6316 264.122C96.182 265.374 95.9526 266.694 95.9536 268.024C95.9536 274.374 101.094 274.593 107.432 274.593C110.51 274.593 113.301 274.543 115.363 273.763L115.004 273.12C114.679 272.432 114.266 271.788 113.778 271.205Z" fill="black"/>
</g>
<defs>
<linearGradient id="paint0_linear" x1="203.565" y1="283.153" x2="203.565" y2="225.786" gradientUnits="userSpaceOnUse">
<stop stop-color="#808080" stop-opacity="0.25"/>
<stop offset="0.54" stop-color="#808080" stop-opacity="0.12"/>
<stop offset="1" stop-color="#808080" stop-opacity="0.1"/>
</linearGradient>
<clipPath id="clip0">
<rect width="410" height="307" fill="white"/>
</clipPath>
</defs>
</svg>
