<svg width="991" height="743" viewBox="0 0 991 743" fill="none" xmlns="http://www.w3.org/2000/svg">
<g clip-path="url(#clip0)">
<path d="M901.491 560.36C888.627 598.077 870.767 635.344 846.388 670.271C845.848 671.058 845.299 671.829 844.747 672.612L771.648 650.214C771.965 649.458 772.31 648.611 772.678 647.686C794.721 593.147 927.316 260.726 911.586 192.111C913.074 197.742 961.711 384.055 901.491 560.36Z" fill="#E6E6E6"/>
<path d="M860.49 674.592C859.612 675.276 858.709 675.952 857.796 676.61L802.959 659.808C803.602 659.195 804.35 658.471 805.211 657.655C819.281 644.079 861.073 603.411 901.491 560.36C944.927 514.096 986.787 465.089 990.988 443.997C990.211 448.807 965.621 595.138 860.49 674.592Z" fill="#E6E6E6"/>
<path d="M867.257 172.945H863.257V63.4C863.257 46.5853 856.578 30.4592 844.688 18.5694C832.798 6.67962 816.672 0 799.857 0H567.77C550.955 0 534.829 6.67962 522.94 18.5694C511.05 30.4592 504.37 46.5853 504.37 63.4V664.374C504.37 681.189 511.05 697.315 522.94 709.205C534.829 721.094 550.955 727.774 567.77 727.774H799.856C816.671 727.774 832.797 721.094 844.687 709.205C856.577 697.315 863.256 681.189 863.256 664.374V250.921H867.256L867.257 172.945Z" fill="#3F3D56"/>
<path d="M802.415 16.493H772.12C773.514 19.9089 774.046 23.6152 773.67 27.2853C773.294 30.9554 772.021 34.4767 769.963 37.5388C767.905 40.601 765.126 43.11 761.87 44.8448C758.614 46.5797 754.981 47.487 751.292 47.487H618.333C614.644 47.4867 611.012 46.5792 607.756 44.8444C604.501 43.1097 601.722 40.601 599.664 37.5392C597.607 34.4775 596.334 30.9568 595.957 27.2871C595.581 23.6175 596.113 19.9116 597.506 16.496H569.206C556.648 16.496 544.605 21.4844 535.726 30.3639C526.846 39.2434 521.858 51.2865 521.858 63.844V63.844V663.933C521.858 676.49 526.846 688.534 535.726 697.413C544.605 706.293 556.648 711.281 569.206 711.281H802.406C814.963 711.281 827.007 706.293 835.886 697.413C844.766 688.534 849.754 676.49 849.754 663.933V663.933V63.841C849.754 51.2835 844.766 39.2404 835.886 30.3609C827.007 21.4814 814.963 16.493 802.406 16.493V16.493L802.415 16.493Z" fill="white"/>
<path d="M711.875 635.907C714.175 621.733 704.55 608.378 690.376 606.078C676.202 603.778 662.847 613.404 660.547 627.578C658.246 641.752 667.872 655.107 682.046 657.407C696.22 659.707 709.575 650.081 711.875 635.907Z" fill="#E6E6E6"/>
<path d="M829.552 330.46H542.06V387.221H829.552V330.46Z" fill="#E6E6E6"/>
<path d="M548.189 381.093H823.424V336.593H548.189V381.093Z" fill="white"/>
<path d="M572.283 341.518C575.637 341.518 578.915 342.512 581.703 344.376C584.491 346.239 586.664 348.887 587.948 351.985C589.231 355.083 589.567 358.492 588.912 361.781C588.258 365.07 586.643 368.091 584.272 370.462C581.901 372.833 578.88 374.448 575.591 375.102C572.302 375.757 568.893 375.421 565.795 374.137C562.697 372.854 560.049 370.681 558.186 367.893C556.323 365.105 555.328 361.826 555.328 358.473C555.328 356.247 555.767 354.042 556.619 351.985C557.471 349.928 558.72 348.058 560.294 346.484C561.869 344.91 563.738 343.661 565.795 342.809C567.852 341.957 570.057 341.518 572.283 341.518Z" fill="#1FFFDA"/>
<path d="M780.162 351.838H612.827V355.524H780.162V351.838Z" fill="#E6E6E6"/>
<path d="M780.162 361.421H612.827V365.107H780.162V361.421Z" fill="#E6E6E6"/>
<path d="M829.552 411.46H542.06V468.221H829.552V411.46Z" fill="#E6E6E6"/>
<path d="M548.189 462.093H823.424V417.593H548.189V462.093Z" fill="white"/>
<path d="M572.283 456.428C581.647 456.428 589.238 448.837 589.238 439.473C589.238 430.109 581.647 422.518 572.283 422.518C562.919 422.518 555.328 430.109 555.328 439.473C555.328 448.837 562.919 456.428 572.283 456.428Z" fill="#1FFFDA"/>
<path d="M780.162 432.838H612.827V436.524H780.162V432.838Z" fill="#E6E6E6"/>
<path d="M780.162 442.421H612.827V446.107H780.162V442.421Z" fill="#E6E6E6"/>
<path d="M829.552 492.46H542.06V549.221H829.552V492.46Z" fill="#E6E6E6"/>
<path d="M548.189 543.093H823.424V498.593H548.189V543.093Z" fill="white"/>
<path d="M572.283 537.428C581.647 537.428 589.238 529.837 589.238 520.473C589.238 511.109 581.647 503.518 572.283 503.518C562.919 503.518 555.328 511.109 555.328 520.473C555.328 529.837 562.919 537.428 572.283 537.428Z" fill="#1FFFDA"/>
<path d="M780.162 513.838H612.827V517.524H780.162V513.838Z" fill="#E6E6E6"/>
<path d="M780.162 523.421H612.827V527.107H780.162V523.421Z" fill="#E6E6E6"/>
<path d="M685.806 273.918C729.989 273.918 765.806 238.101 765.806 193.918C765.806 149.735 729.989 113.918 685.806 113.918C641.623 113.918 605.806 149.735 605.806 193.918C605.806 238.101 641.623 273.918 685.806 273.918Z" fill="#1FFFDA"/>
<path d="M724.806 168.523V219.313C724.806 219.79 724.713 220.262 724.53 220.702C724.348 221.142 724.081 221.542 723.744 221.879C723.407 222.216 723.007 222.483 722.567 222.665C722.127 222.848 721.655 222.941 721.178 222.941H650.434C649.958 222.941 649.486 222.848 649.046 222.665C648.605 222.483 648.205 222.216 647.868 221.879C647.532 221.542 647.264 221.142 647.082 220.702C646.9 220.262 646.806 219.79 646.806 219.313V168.523C646.804 168.108 646.878 167.696 647.024 167.307C647.241 166.687 647.624 166.139 648.131 165.722C648.637 165.304 649.249 165.034 649.899 164.94C650.076 164.911 650.255 164.896 650.434 164.895H721.178C721.358 164.896 721.536 164.911 721.713 164.94C722.363 165.034 722.975 165.304 723.482 165.721C723.989 166.139 724.371 166.687 724.588 167.307C724.735 167.696 724.808 168.108 724.806 168.523V168.523Z" fill="white"/>
<path d="M724.588 167.307L686.885 195.369C686.575 195.605 686.196 195.732 685.806 195.732C685.416 195.732 685.037 195.605 684.727 195.369L647.024 167.307C647.241 166.687 647.623 166.139 648.13 165.722C648.637 165.304 649.249 165.034 649.899 164.94L685.806 191.66L721.713 164.94C722.363 165.034 722.975 165.304 723.482 165.722C723.989 166.139 724.371 166.687 724.588 167.307V167.307Z" fill="#1FFFDA"/>
<path d="M218.552 259.104C218.552 283.912 241.491 280.16 269.788 280.16C298.085 280.16 321.024 283.912 321.024 259.104C321.024 234.296 309.819 190.321 269.788 190.321C228.378 190.321 218.552 234.296 218.552 259.104Z" fill="#2F2E41"/>
<path d="M378.996 712.276L395.376 706.996L382.806 641.306L358.631 649.099L378.996 712.276Z" fill="#A0616A"/>
<path d="M373.095 708.275L405.352 697.877L405.353 697.877C408.052 697.007 410.897 696.677 413.724 696.906C416.551 697.135 419.305 697.919 421.829 699.213C424.354 700.506 426.598 702.284 428.435 704.446C430.272 706.607 431.665 709.109 432.535 711.808L432.751 712.476L379.937 729.5L373.095 708.275Z" fill="#2F2E41"/>
<path d="M177.937 712.818L195.147 712.817L203.334 646.438L177.934 646.439L177.937 712.818Z" fill="#A0616A"/>
<path d="M173.548 707.2L207.439 707.198H207.44C210.277 707.198 213.085 707.757 215.706 708.842C218.326 709.927 220.707 711.518 222.713 713.524C224.718 715.529 226.309 717.91 227.395 720.531C228.48 723.151 229.039 725.96 229.039 728.796V729.498L173.549 729.5L173.548 707.2Z" fill="#2F2E41"/>
<path d="M155.72 456.886C154.359 455.236 153.345 453.328 152.74 451.277C152.134 449.226 151.95 447.073 152.197 444.948C152.445 442.824 153.119 440.771 154.18 438.914C155.241 437.057 156.666 435.433 158.37 434.14C158.995 433.67 159.656 433.248 160.346 432.879L216.482 300.852C217.03 299.266 217.886 297.803 219.002 296.55C220.119 295.296 221.472 294.276 222.985 293.548C224.497 292.821 226.139 292.4 227.815 292.31C229.491 292.221 231.169 292.464 232.75 293.027C234.332 293.589 235.786 294.459 237.029 295.587C238.273 296.714 239.28 298.077 239.994 299.597C240.708 301.116 241.113 302.761 241.187 304.438C241.261 306.115 241.003 307.79 240.426 309.366L182.617 440.727C184.07 444.238 184.213 448.155 183.022 451.763C181.831 455.371 179.384 458.432 176.127 460.389C172.87 462.346 169.018 463.069 165.273 462.426C161.528 461.783 158.138 459.817 155.72 456.886Z" fill="#A0616A"/>
<path d="M363.301 470.133C360.074 468.17 357.659 465.114 356.495 461.52C355.331 457.927 355.496 454.035 356.959 450.553L299.134 319.149C298.564 317.574 298.311 315.902 298.389 314.229C298.467 312.556 298.876 310.916 299.59 309.401C300.305 307.887 301.312 306.528 302.553 305.404C303.795 304.28 305.246 303.413 306.824 302.852C308.402 302.291 310.075 302.047 311.747 302.135C313.42 302.222 315.058 302.64 316.569 303.363C318.079 304.086 319.432 305.101 320.549 306.348C321.666 307.596 322.525 309.052 323.077 310.633L379.231 442.705C379.921 443.074 380.581 443.496 381.207 443.966C382.911 445.259 384.336 446.883 385.397 448.74C386.457 450.597 387.132 452.65 387.379 454.774C387.627 456.899 387.442 459.052 386.837 461.103C386.232 463.155 385.218 465.062 383.857 466.712C382.364 468.52 380.488 469.975 378.366 470.972C376.244 471.97 373.927 472.485 371.582 472.481C368.657 472.485 365.789 471.672 363.301 470.133V470.133Z" fill="#A0616A"/>
<path d="M286.497 275.893C303.204 266.76 309.345 245.812 300.211 229.104C291.078 212.396 270.13 206.256 253.422 215.389C236.715 224.522 230.574 245.471 239.708 262.178C248.841 278.886 269.789 285.026 286.497 275.893Z" fill="#A0616A"/>
<path d="M221.403 392.29L214.565 312.861C214.275 309.5 214.742 306.117 215.929 302.959C217.117 299.802 218.996 296.95 221.428 294.613C223.861 292.276 226.785 290.512 229.988 289.452C233.19 288.392 236.589 288.061 239.936 288.485L303.473 296.527C309.292 297.251 314.6 300.211 318.274 304.781C321.948 309.351 323.698 315.172 323.155 321.01C320.632 349.392 313.592 399.218 294.788 414.065L294.501 414.291L221.403 392.29Z" fill="#2F2E41"/>
<path d="M202.851 672.651L176.492 669.527C174.937 669.364 173.499 668.629 172.457 667.464C171.415 666.299 170.843 664.788 170.854 663.226C170.912 650.541 170.879 637.55 170.848 624.988C170.579 517.352 170.324 415.686 221.02 387.632L221.294 387.481L295.027 413.003L297.85 462.402L357.708 547.202C362.658 554.208 366.385 562.003 368.731 570.255L390.971 648.379C391.205 649.203 391.27 650.066 391.16 650.915C391.051 651.765 390.77 652.583 390.335 653.321C389.899 654.058 389.318 654.699 388.627 655.206C387.936 655.712 387.15 656.072 386.315 656.264L360.391 662.247C358.897 662.59 357.329 662.379 355.979 661.653C354.629 660.927 353.589 659.735 353.052 658.299L318.316 571.815L247.731 495.759C247.465 495.482 247.128 495.284 246.757 495.185C246.386 495.087 245.995 495.092 245.626 495.199C245.258 495.307 244.925 495.513 244.666 495.796C244.406 496.079 244.228 496.427 244.152 496.803L209.724 667.62C209.416 669.167 208.539 670.542 207.267 671.473C205.994 672.405 204.418 672.825 202.851 672.651Z" fill="#2F2E41"/>
<path d="M309.795 242.259H296.158L290.142 225.414L288.939 242.259H282.422L278.913 232.433L278.211 242.259H229.782C229.782 237.466 230.726 232.72 232.56 228.292C234.395 223.864 237.083 219.841 240.472 216.452C243.861 213.063 247.884 210.374 252.312 208.54C256.74 206.706 261.486 205.762 266.279 205.762H273.298C278.091 205.762 282.836 206.706 287.264 208.54C291.692 210.374 295.716 213.063 299.105 216.452C302.494 219.841 305.182 223.864 307.016 228.292C308.851 232.72 309.795 237.466 309.795 242.259V242.259Z" fill="#2F2E41"/>
<path d="M979 730.321H1C0.734784 730.321 0.480429 730.216 0.292892 730.028C0.105356 729.841 0 729.586 0 729.321C0 729.056 0.105356 728.802 0.292892 728.614C0.480429 728.427 0.734784 728.321 1 728.321H979C979.265 728.321 979.52 728.427 979.707 728.614C979.895 728.802 980 729.056 980 729.321C980 729.586 979.895 729.841 979.707 730.028C979.52 730.216 979.265 730.321 979 730.321Z" fill="#CACACA"/>
</g>
<defs>
<clipPath id="clip0">
<rect width="991" height="743" fill="white"/>
</clipPath>
</defs>
</svg>
